<svg width="50" height="53" viewBox="0 0 50 53" fill="none" xmlns="http://www.w3.org/2000/svg">
<g id="Isolation_Mode" clip-path="url(#clip0_4715_50082)">
<path id="Vector" d="M45.9117 52.3131H1.74694C1.73658 52.124 1.71586 51.9453 1.7055 51.7562C1.7055 50.59 1.7055 50.5795 2.82438 50.5479C3.18698 50.5479 3.33202 50.4008 3.33202 50.0331C3.32166 48.7408 3.32166 47.4484 3.33202 46.1561C3.33202 45.7148 3.1559 45.5993 2.75186 45.6098C2.0163 45.6308 1.28074 45.6098 0.534815 45.6098C0.151494 45.6098 -0.00390625 45.4837 -0.00390625 45.0844C0.00645377 43.7291 0.00645377 42.3632 -0.00390625 41.0078C-0.00390625 40.598 0.141134 40.4299 0.555535 40.4404C1.31182 40.4615 2.0681 40.4404 2.81402 40.4404C3.17662 40.4404 3.32166 40.3038 3.32166 39.9256C3.3113 38.6333 3.3113 37.3409 3.32166 36.0486C3.32166 35.6073 3.14554 35.4918 2.7415 35.5023C1.98522 35.5233 1.22894 35.5023 0.483015 35.5023C0.141134 35.5023 -0.00390625 35.3762 -0.00390625 35.0295C-0.00390625 33.6216 -0.00390625 32.2031 -0.00390625 30.7952C-0.00390625 30.438 0.161854 30.3224 0.493375 30.3224C1.0321 30.3329 1.57082 30.3224 2.09918 30.3224C3.4667 30.3119 3.30094 30.4905 3.3113 29.1036C3.3113 28.7359 3.26986 28.3682 3.58066 28.0635C4.53378 27.1284 5.46618 26.1723 6.38822 25.2161C6.63686 24.9535 6.81299 24.985 7.05127 25.2267C7.83863 26.0462 8.60527 26.8762 9.44443 27.6327C9.96243 28.1055 10.1696 28.6203 10.1282 29.3243C10.0764 30.3539 10.1178 30.3434 11.1435 30.3224C11.5061 30.3224 11.6615 30.1963 11.6615 29.8181C11.6615 27.9689 11.6511 26.1092 11.6615 24.26C11.6615 23.8503 11.4854 23.7242 11.1124 23.7347C10.5219 23.7452 9.94171 23.7347 9.35119 23.7347C5.82878 23.6716 3.2077 20.9294 3.3113 17.4096C3.32166 16.9999 3.45634 16.8318 3.87074 16.8423C5.0725 16.8633 6.28462 16.8633 7.49675 16.8423C8.89535 16.8212 10.1282 17.2835 11.2264 18.1451C11.3403 18.2292 11.4232 18.4288 11.5993 18.3342C11.7236 18.2607 11.6615 18.0821 11.6615 17.956C11.6615 15.8651 11.6615 13.7743 11.6615 11.6834C11.6615 11.2316 11.5061 11.0846 11.071 11.0846C10.18 11.0846 9.29939 11.1266 8.40843 11.011C5.60086 10.6223 3.16626 8.14266 3.3113 4.6334C3.32166 4.38124 3.40454 4.20263 3.68426 4.20263C5.36258 4.24465 7.04091 4.05553 8.69851 4.32871C9.11291 4.40225 9.35119 4.30769 9.59983 3.99249C10.4494 2.89979 11.3196 1.81759 12.1691 0.714382C12.4385 0.367659 12.6042 0.346646 12.884 0.714382C13.7438 1.83861 14.6348 2.95232 15.5154 4.06604C15.6604 4.25516 15.8055 4.44428 16.0956 4.38124C17.805 4.02401 19.5351 4.27617 21.2548 4.20263C21.5967 4.19212 21.7625 4.32871 21.7521 4.67543C21.7314 5.03266 21.7211 5.38989 21.69 5.74712C21.4517 8.43685 19.2554 10.7063 16.6136 11.0215C15.7226 11.1266 14.842 11.074 13.951 11.0951C13.7335 11.0951 13.4538 11.0951 13.4538 11.3892C13.433 12.3138 13.4538 13.2384 13.4538 14.2156C15.5568 12.629 16.5618 12.5975 18.9446 12.608C19.4004 12.608 19.8459 12.5975 20.3017 12.608C21.7625 12.6501 21.8764 12.2613 21.7003 14.1525C21.462 16.6952 19.504 18.9016 17.0383 19.3744C16.0748 19.5635 15.101 19.4479 14.1272 19.4795C13.4538 19.5005 13.4434 19.49 13.4434 20.1624C13.4434 22.0536 13.4434 23.9343 13.4434 25.8255C13.4434 25.9831 13.3916 26.1618 13.5574 26.3719C13.9303 26.0042 14.3033 25.6469 14.6452 25.2687C14.9249 24.943 15.1424 24.985 15.4222 25.2687C16.1266 26.0147 16.8311 26.7817 17.5978 27.4646C18.2401 28.0425 18.5405 28.6729 18.4576 29.5554C18.3851 30.3119 18.4576 30.3224 19.2036 30.3224C19.9184 30.3224 19.9288 30.3224 19.9288 29.5764C19.9288 29.3033 19.9288 29.0301 19.9288 28.7569C19.9288 28.4627 20.0324 28.2421 20.2292 28.032C21.1616 27.0969 22.0837 26.1618 22.9953 25.2161C23.2647 24.9325 23.4512 24.985 23.6998 25.2372C24.3007 25.8676 24.8912 26.54 25.5543 27.1074C26.4038 27.8323 26.9425 28.6413 26.7249 29.8181C26.6524 30.1858 26.87 30.3329 27.2326 30.3224C27.9992 30.3119 28.7762 30.3224 29.5429 30.3224C29.9055 30.3224 30.0505 30.459 30.0401 30.8373C30.0298 32.2136 30.0298 33.59 30.0401 34.9664C30.0401 35.3552 29.9158 35.5233 29.5221 35.5023C29.0041 35.4812 28.4861 35.5023 27.9681 35.5023C26.5385 35.5128 26.7353 35.3131 26.7249 36.7841C26.7249 37.4145 26.7249 38.0449 26.7249 38.6753C26.7249 38.8014 26.6628 38.9485 26.8078 39.043C28.2997 37.3409 30.1127 36.6685 32.3193 37.3094C32.6198 37.3935 32.7441 37.2254 32.9099 37.0468C33.7179 36.1747 34.7021 35.5968 35.8728 35.4602C36.4426 35.3972 36.5566 35.1555 36.5566 34.6512C36.5462 32.1821 36.5566 29.7235 36.5566 27.2545C36.5566 27.0969 36.6187 26.9182 36.4426 26.7501C36.3287 26.8447 36.2147 26.9393 36.1111 27.0443C33.3864 29.5659 29.0041 29.2928 26.6006 26.4454C24.1142 23.493 24.4561 19.3113 27.3776 16.7372C27.6055 16.5376 27.7713 16.3905 27.6781 16.0227C26.9632 13.0703 28.0717 10.5067 30.7032 9.06726C30.9829 8.90965 31.0554 8.76256 30.9725 8.46837C30.8068 7.91151 30.7757 7.33364 30.7757 6.75577C30.7757 1.99621 35.5931 -1.29241 39.9443 0.49374C43.0627 1.76506 44.7306 5.04317 43.9847 8.42634C43.9226 8.69952 43.8708 8.89915 44.1919 9.04624C46.409 10.0864 48.1494 12.9232 47.2481 16.0753C47.186 16.2854 47.1963 16.4535 47.3932 16.6111C48.7814 17.7038 49.5791 19.1537 49.921 20.8874V23.1358C49.8796 23.2829 49.8381 23.43 49.7967 23.5771C48.4188 28.7254 42.6068 30.48 38.67 26.9287C38.5975 26.8657 38.5457 26.7501 38.411 26.8132C38.4007 26.8552 38.38 26.9077 38.38 26.9498C38.38 29.7341 38.38 32.5288 38.38 35.3131C38.38 35.6178 38.5146 35.7754 38.7736 35.891C39.3124 36.1432 39.82 36.4584 40.2033 36.9207C40.5141 37.2989 40.8042 37.3725 41.2808 37.2464C44.5338 36.4269 47.6833 39.0641 47.4864 42.4367C47.4761 42.6889 47.5278 42.857 47.7351 42.9936C48.9161 43.7816 49.5998 44.9163 49.9314 46.2927V48.2365C49.3823 50.4008 48.0459 51.7667 45.9117 52.3131ZM32.4955 50.5479C36.6395 50.5479 40.7731 50.5479 44.9171 50.5479C46.5436 50.5479 47.8076 49.4973 48.1495 47.8897C48.4603 46.4293 47.6833 44.9163 46.2639 44.2544C45.6907 43.9882 45.4766 43.5399 45.6216 42.9095C46.0153 41.1759 44.9793 39.4528 43.2906 39.0115C41.5605 38.5597 39.7786 39.6104 39.3331 41.3335C39.1742 41.9499 38.7771 42.2546 38.1417 42.2476C38.1417 42.2476 38.0795 42.2476 38.0381 42.2476C37.4579 42.2476 37.3647 42.153 37.4579 41.5436C37.6133 40.514 38.007 39.5894 38.7011 38.8119C39.1466 38.3181 39.1362 38.2971 38.6182 37.8978C36.712 36.4163 33.9459 37.4775 33.4693 39.8836C33.3864 40.3038 33.3346 40.6506 32.7545 40.6191C31.6252 40.5665 31.4491 40.7556 31.7185 39.4318C31.7806 39.1166 31.6667 39.022 31.3766 38.9485C30.2888 38.7068 28.8798 39.2742 28.2271 40.2198C28.0614 40.4614 28.0821 40.6401 28.2479 40.8607C28.6519 41.4071 28.9316 42.027 29.087 42.6994C29.3771 43.9392 29.346 43.9707 28.0821 43.9812C27.6159 43.9812 27.4398 43.8131 27.3673 43.3613C27.1393 41.9849 26.3416 41.0813 25.0259 40.7241C23.7309 40.3669 22.612 40.7451 21.7107 41.7643C21.3274 42.2056 21.3481 42.2791 21.8661 42.4998C23.5444 43.2247 24.5908 44.4855 24.9845 46.2927C25.202 47.2803 25.1399 47.3434 24.166 47.3434C24.0624 47.3434 23.9692 47.3434 23.8656 47.3434C23.4512 47.3854 23.2854 47.2068 23.2336 46.776C23.0057 44.9058 21.1305 43.603 19.3382 44.0443C17.7117 44.4435 16.6136 45.967 16.7897 47.5955C16.9762 49.2976 18.354 50.5584 20.0738 50.5584C24.2178 50.5584 28.3515 50.5584 32.4955 50.5584V50.5479ZM38.411 15.0036C39.2606 14.3206 39.9961 13.7323 40.7213 13.1229C41.0218 12.8707 41.2393 12.8707 41.4465 13.2069C41.5087 13.3015 41.5916 13.396 41.6641 13.4906C42.3893 14.3942 42.2546 14.1946 41.5087 14.825C40.6902 15.5079 40.6902 15.4869 41.4051 16.2434C42.4618 17.3676 42.5343 16.9158 41.3429 18.1661C41.1357 18.3868 40.97 18.3868 40.7524 18.1661C40.3587 17.7458 39.9547 17.3466 39.5403 16.9368C39.4263 16.8212 39.302 16.6321 39.1259 16.7687C38.7736 17.0314 38.3696 17.2415 38.3903 17.8299C38.4318 19.0172 38.3903 20.2149 38.4007 21.4022C38.4007 21.5388 38.3178 21.7384 38.4939 21.812C38.6182 21.8645 38.7322 21.7174 38.8462 21.6438C39.9029 20.9294 40.97 20.2149 42.0267 19.49C42.296 19.3008 42.524 19.2798 42.814 19.4374C43.5703 19.8367 44.3473 20.2044 45.1036 20.6037C46.44 21.3076 46.3572 20.9084 45.6423 22.4108C45.4973 22.7155 45.3315 22.7576 45.0414 22.6105C44.3473 22.2427 43.6325 21.9065 42.928 21.5283C42.6379 21.3707 42.41 21.3917 42.1406 21.5808C41.1772 22.2532 40.2033 22.9257 39.2088 23.5561C38.8151 23.8082 38.7944 24.0394 39.0119 24.4281C40.0376 26.2878 42.151 27.265 44.2748 26.8552C46.4608 26.4349 48.1702 24.3651 48.1805 22.1061C48.1909 20.0678 47.2896 18.5654 45.5491 17.5672C44.7306 17.0944 44.7721 17.1995 45.1865 16.4115C45.6734 15.5079 45.8184 14.5413 45.5905 13.5431C45.1761 11.736 44.0262 10.6853 42.2442 10.2965C41.3947 10.1074 41.229 10.2545 41.747 9.26688C42.1924 8.40533 42.3893 7.50175 42.3582 6.51411C42.2753 3.66678 39.4574 1.35529 36.7016 1.89114C33.2621 2.55306 31.5941 5.99928 33.1585 9.19334C33.4555 9.80273 33.2863 10.1705 32.6509 10.2965C29.8122 10.8744 28.424 13.7638 29.7293 16.38C30.1334 17.189 30.2059 17.0944 29.346 17.5777C27.7402 18.4813 26.8285 19.8892 26.7457 21.7384C26.6524 23.7557 27.533 25.3422 29.2839 26.3299C31.0347 27.3175 32.8063 27.2019 34.4639 26.0567C36.2354 24.8274 36.7016 23.0097 36.5359 20.9504C36.5151 20.6982 36.3597 20.5616 36.1836 20.4146C35.3963 19.7631 34.5882 19.1117 33.8112 18.4498C33.5315 18.2081 33.3139 18.1661 33.0549 18.4813C32.827 18.7545 32.568 18.9961 32.309 19.2378C31.2315 20.2885 31.6149 20.32 30.4753 19.2063C30.4545 19.1853 30.4338 19.1537 30.4027 19.1327C30.1852 18.9436 30.2163 18.765 30.4027 18.5759C30.7135 18.2712 31.0243 17.956 31.3248 17.6408C32.2779 16.6426 32.2261 16.9894 31.5009 15.8441C30.7653 14.6884 30.7032 15.0141 31.8221 14.1946C32.2572 13.8794 32.4955 13.9739 32.7234 14.4047C33.49 15.8861 34.6503 16.9999 35.9868 17.9455C36.1318 18.0505 36.2458 18.2922 36.4426 18.1871C36.6187 18.0926 36.5462 17.8509 36.5462 17.6723C36.5462 14.93 36.5048 12.1983 36.5773 9.45601C36.598 8.48938 36.3183 7.91151 35.4999 7.40719C34.2359 6.62969 34.3085 6.94489 35.158 5.58952C35.3652 5.2533 35.562 5.27432 35.8521 5.47394C36.4115 5.8732 36.971 6.29347 37.5719 6.62969C38.2038 6.97641 38.525 7.43871 38.4007 8.18469C38.3592 8.41584 38.4007 8.65749 38.4007 8.89915C38.4007 9.17232 38.4525 9.2879 38.7426 9.10928C39.5817 8.61546 39.5817 8.62597 40.1101 9.43499C40.1722 9.52955 40.2344 9.63462 40.3069 9.72918C40.483 9.97084 40.452 10.1495 40.193 10.3176C39.7164 10.6328 39.2398 10.9585 38.7736 11.2737C38.6079 11.3892 38.4214 11.5048 38.4214 11.736C38.4214 12.7866 38.4214 13.8373 38.4214 15.0141L38.411 15.0036ZM8.35663 39.7575C8.35663 36.595 8.32555 33.4324 8.37735 30.2804C8.38771 29.4504 8.18051 28.841 7.55891 28.2841C6.69902 27.5171 6.77154 27.5066 5.91166 28.2946C5.34186 28.82 5.14502 29.3873 5.14502 30.1648C5.1761 36.6055 5.16574 43.0461 5.16574 49.4762C5.16574 49.6654 5.16574 49.8545 5.16574 50.0331C5.16574 50.4008 5.32114 50.5584 5.68374 50.5479C6.27426 50.5374 6.85442 50.5479 7.44495 50.5479C8.05273 50.5479 8.35663 50.2467 8.35663 49.6444C8.35663 46.3452 8.35663 43.0566 8.35663 39.7575ZM13.4538 39.768C13.4538 41.7433 13.4538 43.708 13.4538 45.6833C13.4538 47.1122 13.4538 48.5411 13.4538 49.9701C13.4538 50.3693 13.5574 50.5795 13.9925 50.5584C14.5416 50.5374 15.101 50.5479 15.6501 50.5584C16.0645 50.5584 16.0541 50.4324 15.8573 50.1172C14.5312 47.9633 14.7073 45.7253 16.3546 43.7711C16.5307 43.5609 16.6239 43.3613 16.6239 43.0881C16.6239 38.5702 16.6239 34.0418 16.6239 29.5239C16.6239 29.2297 16.5514 28.9986 16.3338 28.7989C15.992 28.4732 15.6604 28.137 15.3393 27.7903C15.1321 27.5697 14.956 27.5802 14.7488 27.7903C14.4898 28.074 14.2204 28.3682 13.9303 28.6203C13.5677 28.9355 13.4434 29.2928 13.4538 29.7761C13.4745 33.1067 13.4538 36.4374 13.4538 39.768ZM21.7832 34.1049C21.7832 35.6178 21.7832 37.1308 21.7832 38.6438C21.7832 39.3372 21.7832 39.3477 22.4048 39.1061C23.0264 38.8644 23.6584 38.7594 24.3214 38.7909C24.9223 38.8224 24.943 38.7909 24.9534 38.1815C24.9534 35.7229 24.9534 33.2538 24.9534 30.7952C24.9534 29.6465 24.5459 28.6694 23.7309 27.8638C23.7309 27.8638 23.7102 27.8428 23.6998 27.8323C23.4823 27.5592 23.2751 27.5486 23.0368 27.8113C22.7778 28.095 22.5084 28.3787 22.2183 28.6413C21.8868 28.9355 21.7729 29.2823 21.7832 29.7235C21.8039 31.184 21.7832 32.6444 21.7832 34.1049ZM12.5524 9.24587C13.5366 9.2984 14.3033 8.94117 14.7488 8.02709C15.2046 7.09198 14.9767 6.25144 14.3447 5.48445C13.8682 4.89607 13.402 4.28668 12.9358 3.6983C12.5732 3.236 12.5524 3.236 12.1691 3.70881C11.6926 4.30769 11.2367 4.90658 10.7602 5.49496C10.1282 6.27246 9.91063 7.12351 10.3768 8.0481C10.8223 8.95168 11.5993 9.30891 12.5628 9.25638L12.5524 9.24587ZM15.0803 17.6933C15.36 17.6933 15.6501 17.6933 15.9298 17.6933C17.577 17.6723 19.0689 16.6321 19.6698 15.0771C19.8666 14.5728 19.8148 14.4887 19.2657 14.4887C18.5612 14.4887 17.8568 14.4782 17.1626 14.4887C15.6812 14.5413 14.0961 15.8021 13.6817 17.231C13.5781 17.5882 13.6817 17.6933 14.0339 17.6828C14.3862 17.6723 14.7384 17.6828 15.0906 17.6828L15.0803 17.6933ZM9.73451 21.896C10.3043 21.896 10.698 21.8855 11.0813 21.896C11.475 21.9065 11.5372 21.7489 11.4025 21.4022C10.8534 20.0048 9.86919 19.1222 8.42915 18.786C7.51747 18.5759 6.59542 18.7125 5.68374 18.6914C5.35222 18.6914 5.2797 18.8596 5.39366 19.1537C5.54906 19.6055 5.77698 20.0153 6.07742 20.383C7.08235 21.6123 8.40843 22.0326 9.74487 21.896H9.73451ZM18.4576 38.9485C18.4576 39.9361 18.4576 40.9132 18.4576 41.9009C18.4576 42.2476 18.582 42.3527 18.9135 42.2791C19.4108 42.1741 19.908 41.5962 19.9184 40.9343C19.9495 39.2742 19.9288 37.6036 19.9288 35.9435C19.9288 35.6494 19.7837 35.5128 19.4936 35.5233C19.359 35.5233 19.2243 35.5338 19.0896 35.5233C18.613 35.4602 18.4266 35.6599 18.4369 36.1537C18.468 37.0888 18.4369 38.0239 18.4369 38.9485H18.4576ZM11.6718 37.9819C11.6718 37.425 11.6718 36.8576 11.6718 36.3008C11.6718 35.7824 11.4094 35.5233 10.8845 35.5233C10.8223 35.5233 10.7498 35.5233 10.6876 35.5233C10.2732 35.4812 10.1178 35.6599 10.1282 36.0801C10.1489 37.2044 10.1282 38.3181 10.1282 39.4423C10.1282 40.5035 10.1282 40.493 11.1953 40.4614C11.5372 40.4509 11.6822 40.3249 11.6718 39.9781C11.6615 39.3162 11.6718 38.6543 11.6718 37.9924V37.9819ZM11.6718 48.1314C11.6718 47.6271 11.6718 47.1122 11.6718 46.6079C11.6718 45.5993 11.6718 45.6203 10.6876 45.6203C10.2732 45.6203 10.1178 45.7569 10.1282 46.1876C10.1489 47.3119 10.1282 48.4256 10.1282 49.5498C10.1282 50.611 10.1282 50.6005 11.1849 50.569C11.5268 50.5584 11.6718 50.4324 11.6615 50.0856C11.6511 49.4447 11.6615 48.7933 11.6615 48.1524L11.6718 48.1314ZM6.76119 6.00979C6.76119 6.00979 6.76119 6.0203 6.76119 6.0308C6.40894 6.0308 6.0567 6.0308 5.70446 6.0308C5.35222 6.0308 5.25898 6.1884 5.3833 6.51411C5.94274 7.98506 6.9891 8.85712 8.49131 9.19334C8.76067 9.25638 8.94715 9.21435 8.76067 8.85712C8.37735 8.13215 8.27375 7.34415 8.37735 6.53513C8.41879 6.20942 8.28411 6.09384 8.01475 6.07283C7.60035 6.04131 7.17559 6.0308 6.76119 6.00979ZM18.3022 6.0308C17.9604 6.05182 17.5149 5.97827 17.059 6.08334C16.8518 6.13587 16.655 6.1884 16.7068 6.47209C16.8726 7.32313 16.6861 8.12165 16.3235 8.88864C16.1992 9.15131 16.2924 9.22486 16.5514 9.21435C17.805 9.1303 19.4522 7.68036 19.7423 6.43006C19.8044 6.15688 19.7319 6.04131 19.4626 6.04131C19.1103 6.04131 18.7581 6.04131 18.2919 6.04131L18.3022 6.0308ZM2.5343 33.7056C3.06611 33.7056 3.33202 33.4499 3.33202 32.9386C3.33202 32.4273 3.09374 32.1611 2.61718 32.1401C2.14062 32.1191 1.8678 32.3642 1.79874 32.8756C1.72967 33.3869 1.97486 33.6601 2.5343 33.6951V33.7056ZM11.6718 32.9701C11.6718 32.4238 11.4439 32.1471 10.9881 32.1401C10.4217 32.1401 10.1385 32.3783 10.1385 32.8546C10.1385 33.4219 10.3768 33.7056 10.8534 33.7056C11.4059 33.7056 11.6822 33.4604 11.6822 32.9701H11.6718ZM27.4709 33.7056C28.0027 33.7056 28.272 33.471 28.2789 33.0017C28.2789 32.4343 28.0441 32.1506 27.5745 32.1506C27.0219 32.1506 26.7457 32.3958 26.7457 32.8861C26.7457 33.4394 26.9908 33.7161 27.4812 33.7161L27.4709 33.7056ZM2.56538 42.2476C2.05428 42.2476 1.79874 42.4928 1.79874 42.9831C1.79874 43.5294 2.04738 43.8026 2.54466 43.8026C3.07647 43.8026 3.34238 43.5469 3.34238 43.0356C3.34238 42.5033 3.08683 42.2371 2.57574 42.2371L2.56538 42.2476ZM11.6718 43.0251C11.6718 42.5068 11.4266 42.2476 10.9363 42.2476C10.3976 42.2476 10.1282 42.4998 10.1282 43.0041C10.1282 43.5364 10.3803 43.8061 10.8845 43.8131C11.4025 43.8131 11.6615 43.5539 11.6615 43.0356L11.6718 43.0251ZM19.9391 32.9176C19.9391 32.4063 19.687 32.1506 19.1828 32.1506C18.468 32.1506 18.4473 32.1611 18.4576 32.9386C18.4576 33.6951 18.4576 33.7056 19.2139 33.7056C19.9391 33.7056 19.9391 33.7056 19.9391 32.9176Z" fill="#003125"/>
</g>
<defs>
<clipPath id="clip0_4715_50082">
<rect width="49.9353" height="52.3132" fill="white"/>
</clipPath>
</defs>
</svg>
