<svg width="54" height="45" viewBox="0 0 54 45" fill="none" xmlns="http://www.w3.org/2000/svg">
<g id="Layer_1" clip-path="url(#clip0_4716_50243)">
<path id="Vector" d="M0.000286168 20.1922C0.289563 19.8661 0.655701 19.7587 1.10848 19.7639C2.85113 19.7809 4.59518 19.7691 6.33782 19.7718C7.18888 19.7731 7.4572 20.0311 7.46139 20.8301C7.46279 21.1563 7.48655 21.485 7.4558 21.8099C7.41667 22.2316 7.61372 22.3548 8.03296 22.3312C8.46757 22.3063 8.90498 22.3181 9.3396 22.3286C10.452 22.3535 11.1982 23.0555 11.2178 24.0995C11.229 24.6876 11.2276 25.2757 11.2178 25.8638C11.2122 26.1664 11.3114 26.2437 11.6175 26.1101C12.9618 25.5206 14.3467 25.0334 15.7917 24.7072C16.088 24.6404 16.1816 24.4977 16.1802 24.2265C16.1732 22.6416 16.169 21.0567 16.183 19.4718C16.1858 19.1077 16.0824 19.0749 15.7288 19.1954C14.1455 19.7364 12.6125 18.9675 12.2645 17.4625C12.0633 16.5902 12.3665 15.8383 13.0457 15.241C14.6332 13.8434 16.2389 12.4629 17.8404 11.0784C20.7108 8.59755 23.584 6.12064 26.4544 3.63981C27.557 2.68756 28.6485 1.72483 29.7553 0.776508C30.9823 -0.273982 32.363 -0.256954 33.5816 0.805324C34.666 1.75103 35.756 2.6928 36.8349 3.64374C37.3268 4.0773 37.3981 4.52788 37.0599 4.88154C36.7175 5.23912 36.1515 5.20376 35.6764 4.79116C34.6269 3.88082 33.5843 2.96525 32.5307 2.06146C31.7928 1.43012 31.5301 1.41702 30.7992 2.04312C28.3955 4.1048 26.0031 6.17959 23.6078 8.25175C20.5222 10.9225 17.4421 13.5985 14.3495 16.2627C14.0016 16.5614 13.8311 16.8823 13.9932 17.3001C14.2042 17.8437 14.8876 17.9498 15.4172 17.5084C16.2641 16.8037 17.0914 16.078 17.9243 15.3576C21.8973 11.9245 25.8633 8.48621 29.8433 5.0623C30.9864 4.07861 32.328 4.08516 33.5047 5.08718C35.5436 6.82141 37.5546 8.58576 39.5781 10.3357C42.3186 12.7065 45.059 15.0786 47.8008 17.4481C48.3025 17.8817 48.7595 17.9066 49.1396 17.545C49.4918 17.2084 49.4233 16.6701 48.9454 16.2562C46.1043 13.795 43.2577 11.3377 40.4138 8.87916C39.7989 8.34737 39.1784 7.82081 38.5691 7.28378C38.0884 6.8607 38.0046 6.34594 38.3441 5.99621C38.6935 5.636 39.1924 5.6622 39.7207 6.11409C41.2146 7.39119 42.6973 8.67876 44.1814 9.96633C46.177 11.6966 48.1698 13.4322 50.1668 15.1598C50.9032 15.7977 51.2344 16.5705 51.0276 17.4966C50.6992 18.9636 49.0907 19.7731 47.601 19.2151C47.1957 19.0631 47.0979 19.1024 47.0993 19.5177C47.1119 22.9324 47.1133 26.3472 47.0979 29.7619C47.0965 30.2086 47.2516 30.1824 47.6178 30.0723C48.4912 29.8104 49.3171 29.3768 50.2688 29.3729C51.8395 29.3676 53.1797 30.3566 53.5347 31.7843C53.8743 33.1452 53.0805 34.7105 51.711 35.3104C47.7631 37.0367 43.8125 38.7539 39.8576 40.4659C38.6739 40.9793 37.3701 41.071 36.118 41.3395C34.0315 41.7875 31.9311 42.1765 29.8391 42.6035C28.8805 42.7987 27.94 42.7594 27.0009 42.5132C21.9364 41.1837 16.8734 39.8542 11.8089 38.5234C11.2262 38.3701 11.2262 38.3688 11.2234 38.9242C11.222 39.3158 11.2346 39.7088 11.2178 40.1004C11.1801 40.944 10.5624 41.5662 9.67359 41.7011C9.10063 41.7875 8.52627 41.7587 7.95191 41.7561C7.60114 41.7548 7.43903 41.8674 7.4558 42.2132C7.47537 42.6049 7.46558 42.9978 7.4572 43.3894C7.44462 43.9736 7.16792 44.2998 6.54605 44.3076C4.64688 44.3325 2.74632 44.322 0.845757 44.3103C0.478222 44.3076 0.179163 44.1361 -0.00390625 43.8191V20.1896L0.000286168 20.1922ZM35.6233 31.0167C35.6386 30.8058 35.6484 30.7299 35.6484 30.6539C35.6484 26.6667 35.6456 22.6796 35.647 18.6925C35.647 18.4122 35.6023 18.1397 35.5282 17.8699C34.9874 15.8986 32.799 14.5508 30.8383 15.0288C29.0859 15.4559 28.0476 16.5535 27.6619 18.2039C27.5193 18.8117 27.149 19.1116 26.6501 19.0304C26.1288 18.9439 25.8927 18.53 26.01 17.8869C26.2728 16.467 27.0512 15.3327 28.253 14.4617C29.3346 13.6771 30.5798 13.1938 31.9479 13.3496C35.2795 13.7295 37.3715 16.0165 37.3729 19.164C37.3757 23.51 37.3729 27.8574 37.3729 32.2034C37.3729 32.3501 37.3743 32.4981 37.3799 32.6448C37.3855 32.8295 37.5029 32.9278 37.6845 32.8937C38.2826 32.7811 38.9045 32.8937 39.4943 32.6986C41.269 32.1144 43.0438 31.5289 44.8284 30.9709C45.2449 30.8412 45.4 30.6526 45.3986 30.2387C45.3846 26.1533 45.3874 22.0679 45.3944 17.9838C45.3944 17.6642 45.2868 17.4403 45.031 17.2215C42.4737 15.0249 39.9317 12.8139 37.3813 10.6081C35.7029 9.15685 34.0246 7.70555 32.3406 6.25949C31.8193 5.81152 31.4616 5.822 30.9305 6.27258C30.6329 6.52407 30.3338 6.77556 30.0404 7.02967C26.1232 10.4235 22.2117 13.8212 18.2848 17.2045C17.983 17.4638 17.8712 17.7258 17.874 18.0965C17.8879 19.8281 17.8796 21.561 17.8796 23.2926C17.8796 23.9868 18.2536 24.3125 19.0017 24.2697C20.5599 24.1833 22.0119 24.4623 23.3101 25.3229C24.0354 25.8036 24.7887 26.2489 25.5209 26.7205C25.7962 26.8973 25.9136 26.8776 25.9066 26.5358C25.8941 25.9149 25.9024 25.294 25.9038 24.6732C25.9038 23.6109 25.8955 22.5486 25.9122 21.4863C25.9192 21.0371 26.242 20.7175 26.6641 20.6769C27.0679 20.6376 27.4606 20.9179 27.557 21.3475C27.606 21.5689 27.6157 21.8007 27.6157 22.0286C27.6199 23.7772 27.6367 25.5259 27.606 27.2732C27.5976 27.7749 27.789 27.9897 28.2893 28.1311C29.7231 28.5372 31.1611 28.9341 32.6159 29.2655C33.787 29.5327 34.8994 29.8628 35.6177 31.018L35.6233 31.0167ZM11.2248 32.3593C11.2248 33.6665 11.2332 34.9724 11.2192 36.2796C11.215 36.5953 11.3338 36.7473 11.6594 36.8324C16.9418 38.2104 22.2215 39.5988 27.5025 40.9807C28.0755 41.1313 28.6555 41.202 29.2564 41.0802C31.4169 40.6427 33.5732 40.1882 35.7434 39.7979C37.6678 39.4521 39.5418 39.0002 41.2746 38.1095C41.8532 37.8122 42.4723 37.5829 43.0732 37.321C45.6795 36.1853 48.2858 35.0484 50.8906 33.9115C51.56 33.6194 51.8996 33.0902 51.915 32.4313C51.929 31.8105 51.5628 31.3468 50.9451 31.0966C50.4518 30.8975 49.9599 30.9866 49.4694 31.1451C46.3265 32.1654 43.1822 33.1806 40.0379 34.197C39.6927 34.3083 39.3461 34.4184 38.9744 34.4302C37.9123 34.4629 36.8516 34.5114 35.791 34.5349C35.4765 34.5415 35.2306 34.6214 34.9916 34.8218C34.0832 35.5828 33.0268 35.8448 31.8417 35.5396C29.8783 35.034 27.9176 34.5153 25.9555 34.0018C25.0835 33.7739 24.2101 33.5513 23.3437 33.3076C22.9356 33.1937 22.6813 32.9121 22.7078 32.5086C22.7344 32.1117 23.0041 31.855 23.4233 31.7633C23.6553 31.7122 23.8705 31.8092 24.0871 31.8655C26.7367 32.5597 29.3835 33.2579 32.0332 33.9508C32.3671 34.0385 32.6997 34.1341 33.0589 34.0477C33.8079 33.8682 34.3572 33.2618 34.3753 32.5767C34.3921 31.9297 33.8904 31.2918 33.1567 31.0914C32.2721 30.8491 31.3819 30.6172 30.4834 30.4221C28.0601 29.8955 25.8158 29.0192 23.8412 27.5732C23.3073 27.1815 22.7092 26.8698 22.1516 26.5056C21.2419 25.9136 20.1924 25.8075 19.1512 25.8468C16.531 25.945 14.105 26.7362 11.7712 27.8155C11.3771 27.9975 11.2094 28.2137 11.2192 28.6381C11.2485 29.8785 11.2304 31.1202 11.2304 32.3619L11.2248 32.3593ZM1.60598 32.0436C1.60598 35.4099 1.61437 38.7762 1.5962 42.1412C1.5934 42.5957 1.74014 42.7371 2.21947 42.7227C3.15997 42.6926 4.10187 42.7149 5.04376 42.7136C5.75648 42.7136 5.75927 42.7123 5.75927 42.0259C5.75927 38.251 5.75787 34.4773 5.76346 30.7024C5.76346 30.3932 5.78442 30.0789 5.84871 29.7776C5.91718 29.4593 6.1841 29.2864 6.51391 29.2249C6.81436 29.1685 7.05892 29.289 7.25876 29.4934C7.47816 29.7187 7.46419 30.0016 7.46419 30.2806C7.46419 33.1072 7.46419 35.9339 7.46419 38.7605C7.46419 40.2157 7.46419 40.2065 9.02377 40.1659C9.3899 40.1568 9.50869 40.0323 9.50869 39.7009C9.5031 34.6031 9.5031 29.5052 9.50869 24.4073C9.50869 24.0798 9.40108 23.92 9.02796 23.941C8.67999 23.9593 8.32922 23.9672 7.98265 23.9397C7.54943 23.9056 7.44742 24.0903 7.4572 24.4597C7.47816 25.243 7.47117 26.0289 7.4572 26.8121C7.44882 27.247 7.20286 27.5168 6.73331 27.5705C6.26935 27.6229 5.92278 27.3885 5.82775 26.9431C5.77744 26.7047 5.76486 26.4572 5.76346 26.2135C5.75787 24.7753 5.75228 23.3371 5.76486 21.9003C5.76905 21.5243 5.6321 21.3737 5.21845 21.3816C4.22485 21.3999 3.22985 21.4117 2.23764 21.3776C1.72197 21.3606 1.5948 21.5348 1.5962 21.9972C1.61437 25.3464 1.60598 28.697 1.60598 32.0463V32.0436Z" fill="#003125"/>
<path id="Vector_2" d="M30.3623 22.16C30.3623 22.7965 30.0409 23.1685 29.4973 23.1607C28.9649 23.1528 28.6449 22.7926 28.6407 22.194C28.6365 21.5797 28.9747 21.1645 29.4903 21.154C30.0172 21.1435 30.3623 21.5417 30.3637 22.1587L30.3623 22.16Z" fill="#003125"/>
</g>
<defs>
<clipPath id="clip0_4716_50243">
<rect width="53.614" height="44.3249" fill="white"/>
</clipPath>
</defs>
</svg>
