<svg xmlns="http://www.w3.org/2000/svg" width="47" height="38" viewBox="0 0 47 38" fill="none">
  <path d="M32.9903 24.4375C35.2273 24.4375 37.4644 24.4375 39.6833 24.4375C40.3744 24.4375 40.5927 24.6223 40.5927 25.2075C40.5927 27.4561 40.5927 29.7046 40.5927 31.9532C40.5927 32.4922 40.3744 32.6924 39.7378 32.6924C35.2091 32.6924 30.6804 32.6924 26.1517 32.6924C25.5515 32.6924 25.2969 32.4768 25.2969 31.9686C25.2969 29.7046 25.2969 27.4253 25.2969 25.1613C25.2969 24.6377 25.5515 24.4375 26.1881 24.4375C28.4433 24.4375 30.7168 24.4375 32.9721 24.4375H32.9903ZM33.6814 25.5926V31.4911H39.2104V25.5926H33.6814ZM32.2264 31.5219V25.608H26.6973V31.5065C26.8246 31.5065 26.9338 31.5373 27.0247 31.5373C28.7525 31.5373 30.4622 31.5373 32.2264 31.5373V31.5219Z" fill="#4A3121"/>
  <path d="M14.7129 23.2065C13.3852 23.2065 12.0393 23.2065 10.7116 23.2065C10.0933 23.2065 9.875 23.0217 9.875 22.4981C9.875 20.2341 9.875 17.9548 9.875 15.6909C9.875 15.1672 10.0933 14.9824 10.7116 14.9824C13.3852 14.9824 16.077 14.9824 18.7506 14.9824C19.3871 14.9824 19.6054 15.1672 19.6054 15.7217C19.6054 17.9856 19.6054 20.2341 19.6054 22.4981C19.6054 23.0371 19.3871 23.2219 18.7506 23.2373C17.4047 23.2373 16.0588 23.2373 14.7129 23.2373V23.2065ZM14.0945 16.1375H11.2755V18.463H14.0945V16.1375ZM14.0945 22.0515V19.6951H11.2755V22.0515H14.0945ZM18.2595 16.1375H15.5132V18.463H18.2595V16.1375ZM15.5132 19.6951V22.0361H18.2413V19.6951H15.5132Z" fill="#4A3121"/>
  <path d="M14.8047 7.88184C16.7871 7.88184 18.2603 9.14471 18.2603 10.8388C18.2603 12.4405 16.678 13.765 14.7683 13.7496C12.8586 13.7496 11.2945 12.4097 11.3127 10.808C11.3127 9.11391 12.804 7.88184 14.7865 7.88184H14.8047ZM14.8047 9.02151C13.6225 9.02151 12.6767 9.80695 12.6767 10.7772C12.6767 11.7937 13.5679 12.5483 14.7683 12.5637C15.9687 12.5637 16.9144 11.7937 16.9144 10.7618C16.9144 9.80695 15.9687 9.00611 14.8229 9.00611L14.8047 9.02151Z" fill="#4A3121"/>
  <path d="M14.0405 31.4448C14.0405 31.6296 14.0405 31.8298 14.0405 32.0146C14.0041 32.338 13.7859 32.5074 13.3857 32.5228C12.9856 32.5228 12.7492 32.3534 12.7128 32.03C12.6582 31.645 12.6582 31.2446 12.7128 30.8595C12.7492 30.5515 12.9856 30.3667 13.3857 30.3667C13.7677 30.3667 14.0041 30.5515 14.0405 30.8749C14.0587 31.0597 14.0405 31.26 14.0405 31.4448Z" fill="#4A3121"/>
  <path d="M46.1577 37.0818C45.9213 37.3744 45.5939 37.436 45.1938 37.436C30.48 37.436 15.7662 37.436 1.05243 37.436C0.979681 37.436 0.90694 37.436 0.834189 37.436C0.361311 37.4052 0.106678 37.1896 0.0884901 36.8508C0.0884901 36.512 0.361293 36.2809 0.815984 36.2655C1.32524 36.2501 1.83451 36.2655 2.34377 36.2655C2.50745 36.2655 2.67114 36.2655 2.85302 36.2655C2.85302 36.1269 2.87119 36.0037 2.87119 35.8959C2.87119 34.1402 2.87119 32.3845 2.87119 30.6442C2.87119 30.3978 2.83482 30.2746 2.50745 30.1822C1.01606 29.7971 0.0703125 28.6729 0.0703125 27.3484C0.0703125 25.0074 0.0703125 22.6819 0.0703125 20.341C0.0703125 19.1859 0.652291 18.308 1.83449 17.7382C3.01668 17.1684 4.23525 17.1838 5.41745 17.7998C5.47201 17.8306 5.52658 17.846 5.61752 17.8922V12.5173C5.45383 12.5481 5.29014 12.5943 5.10826 12.6251C4.30801 12.7329 3.65326 12.5327 3.18038 11.9782C2.67113 11.393 2.61656 10.7616 2.98032 10.1147C3.10763 9.88371 3.30771 9.6835 3.50777 9.51409C6.74517 6.78812 9.98256 4.07755 13.22 1.36699C13.7838 0.889558 14.4567 0.673945 15.2206 0.858756C15.5843 0.951162 15.9663 1.13597 16.2573 1.35159C16.912 1.84442 17.4759 2.39885 18.1306 2.89168C18.3125 3.03029 18.5853 3.1381 18.8217 3.1381C21.4953 3.1535 24.1689 3.1381 26.8243 3.1381C27.5518 3.1381 27.8792 3.30751 27.8792 3.70793C27.8792 4.12376 27.5518 4.30857 26.8061 4.30857C24.6782 4.30857 22.5502 4.30857 20.4222 4.30857C20.2586 4.30857 20.0949 4.30857 19.8403 4.30857C19.9676 4.44718 20.0403 4.52418 20.1313 4.60119C21.3316 5.61765 22.5138 6.63411 23.7324 7.63517C23.8961 7.77378 24.1689 7.86619 24.3872 7.86619C29.9344 7.86619 35.4816 7.86619 41.0288 7.86619C41.1743 7.86619 41.3198 7.86619 41.5199 7.85079C41.0834 7.12694 40.6832 6.4339 40.2831 5.74086C40.0649 5.37123 39.8285 5.00161 39.6284 4.61659C39.5011 4.37017 39.3192 4.29317 39.01 4.29317C36.1909 4.29317 33.3718 4.29317 30.5528 4.29317C30.4254 4.29317 30.2799 4.29317 30.1526 4.29317C29.7161 4.26237 29.4615 4.03135 29.4797 3.70793C29.4797 3.35371 29.7343 3.1843 30.1162 3.1381C30.2436 3.1227 30.3891 3.1381 30.5164 3.1381C33.4991 3.1381 36.4819 3.1381 39.4647 3.1381C40.0285 3.1381 40.3741 3.29211 40.6287 3.73873C41.4289 5.15562 42.2838 6.55711 43.1022 7.95859C43.5205 8.68244 43.2477 9.05206 42.3019 9.05206C41.7199 9.05206 41.138 9.05206 40.5378 9.05206V17.3686C41.1562 17.3686 41.7745 17.384 42.4111 17.3686C42.884 17.3532 43.1568 17.5226 43.3568 17.8614C44.2662 19.4015 45.1756 20.9416 46.1032 22.4817V22.9437C45.6667 23.0823 45.2302 23.2363 44.7209 23.4058C44.7209 23.4982 44.7209 23.683 44.7209 23.8832C44.7209 25.0074 44.7209 26.1471 44.7209 27.2714C44.7209 27.6872 44.4481 27.9336 44.0298 27.9336C43.6297 27.9336 43.3568 27.6872 43.3387 27.2714C43.3387 27.179 43.3387 27.0866 43.3387 27.0096C43.3387 25.9007 43.3387 24.8072 43.3387 23.6984V23.2825H23.787V36.2655H43.3387C43.3387 36.0807 43.3387 35.9267 43.3387 35.7727C43.3387 33.9092 43.3387 32.0457 43.3387 30.1668C43.3387 30.0282 43.3386 29.8895 43.3568 29.7509C43.4296 29.4583 43.6478 29.2735 43.9934 29.2581C44.3754 29.2581 44.6118 29.4429 44.6846 29.7509C44.7209 29.8741 44.7027 29.9974 44.7027 30.136C44.7027 32.0303 44.7027 33.9246 44.7027 35.8035C44.7027 35.9575 44.7027 36.0961 44.7027 36.2655C45.2302 36.2963 45.7576 36.2039 46.085 36.6352V37.0972L46.1577 37.0818ZM18.2216 25.5773C17.5486 25.5773 16.9302 25.5773 16.33 25.5773C15.8026 25.5773 15.548 25.3925 15.548 25.0228C15.548 24.6532 15.8208 24.4376 16.3482 24.4222C17.1121 24.4222 17.876 24.4222 18.6399 24.4222C19.4219 24.4222 19.622 24.5916 19.622 25.2539C19.622 28.7653 19.622 32.2613 19.622 35.7727C19.622 35.9267 19.622 36.0653 19.622 36.2347H22.4411V35.8035C22.4411 27.8258 22.4411 19.8481 22.4411 11.8858C22.4411 11.624 22.3501 11.4392 22.1319 11.2544C19.7675 9.26768 17.4213 7.26555 15.0569 5.27883C14.966 5.20183 14.8568 5.14022 14.7659 5.06322C14.6931 5.10942 14.6386 5.14022 14.6022 5.17102C12.1469 7.21935 9.69156 9.28308 7.25442 11.3468C7.10892 11.47 7.01797 11.701 7.01797 11.8858C7.01797 19.8789 7.01797 27.8566 7.01797 35.8497V36.2501H9.85524C9.85524 36.0807 9.85524 35.9267 9.85524 35.7727C9.85524 32.2613 9.85524 28.7653 9.85524 25.2539C9.85524 24.607 10.0553 24.4376 10.8192 24.4376C11.5831 24.4376 12.347 24.4376 13.1108 24.4376C13.6383 24.4376 13.9293 24.6532 13.9293 25.0228C13.9293 25.3925 13.6383 25.5927 13.1108 25.5927C12.4925 25.5927 11.8923 25.5927 11.2557 25.5927V36.2347H18.2216V25.5927V25.5773ZM44.3572 22.0505C43.7024 20.9416 43.0658 19.8789 42.4475 18.8009C42.302 18.539 42.1201 18.4774 41.7927 18.4774C35.9545 18.4774 30.1344 18.4774 24.2962 18.4774C24.1325 18.4774 23.987 18.4774 23.8233 18.4774V22.0505H44.3572ZM39.2101 16.1211C38.9918 16.1211 38.8099 16.1211 38.6281 16.1211C35.427 16.1211 32.2078 16.1211 29.0068 16.1211C28.2247 16.1211 28.0247 15.9517 28.0247 15.2894C28.0247 13.888 28.0247 12.5019 28.0247 11.1004C28.0247 10.3765 28.2065 10.2379 29.0614 10.2379C32.2624 10.2379 35.4452 10.2379 38.6462 10.2379C38.8281 10.2379 38.9918 10.2379 39.1919 10.2379V9.06746H25.4238C26.3878 9.76051 27.0425 10.4998 26.4242 11.5316C25.8967 12.4249 24.9874 12.7329 23.8233 12.4865V17.307H39.1919V16.1211H39.2101ZM5.6539 23.8524C5.6539 22.6973 5.67209 21.5422 5.6539 20.3872C5.6539 20.0175 5.52658 19.6325 5.30833 19.3091C4.87183 18.6315 3.85332 18.3542 2.92575 18.5699C2.01637 18.7855 1.43438 19.4631 1.43438 20.3718C1.43438 22.6819 1.43438 24.992 1.43438 27.3022C1.43438 28.3803 2.36195 29.1657 3.56233 29.1657C4.7809 29.1657 5.65389 28.3803 5.67208 27.2868C5.67208 26.1471 5.67208 25.0074 5.67208 23.8524H5.6539ZM14.7659 1.82902C14.4931 1.98303 14.2566 2.09083 14.093 2.24484C12.256 3.76954 10.419 5.30963 8.60028 6.84973C7.21803 8.0048 5.83577 9.17527 4.45351 10.3303C4.10794 10.6076 4.08975 10.9156 4.36257 11.1774C4.65357 11.4546 5.09009 11.4854 5.43566 11.2236C5.54478 11.1466 5.6357 11.0696 5.72664 10.9926C8.50934 8.66704 11.2921 6.32609 14.0748 4.00055C14.675 3.49232 14.9114 3.49232 15.5298 4.01595C18.2943 6.3569 21.0588 8.69784 23.8233 11.0388C23.9688 11.162 24.1143 11.3006 24.2962 11.3776C24.7509 11.6086 25.3147 11.3776 25.3147 10.9464C25.3147 10.7308 25.1692 10.4844 25.0055 10.3149C24.5508 9.88371 24.0416 9.48329 23.5505 9.06746C20.8769 6.80352 18.1852 4.52418 15.4934 2.26024C15.3115 2.10623 15.0569 1.99843 14.7841 1.82902H14.7659ZM29.4251 14.9352H39.1919V11.4084H29.4251V14.9352ZM5.63572 36.2347V29.7817C5.27197 29.9203 4.94458 30.0898 4.59901 30.1668C4.28982 30.2438 4.21709 30.3516 4.21709 30.6134C4.21709 32.3691 4.21709 34.1402 4.21709 35.8959C4.21709 36.0037 4.21708 36.1115 4.23527 36.2347H5.61752H5.63572Z" fill="#4A3121"/>
</svg>