<svg xmlns="http://www.w3.org/2000/svg" width="46" height="30" viewBox="0 0 46 30" fill="none">
  <g clipPath="url(#clip0_2636_51227)">
    <path d="M0 14.8285C0.277805 14.391 0.680338 14.236 1.20193 14.2526C2.04101 14.2803 2.88577 14.2415 3.72485 14.2692C4.12171 14.2858 4.28046 14.1308 4.39385 13.7764C5.40869 10.5594 7.15489 7.76868 9.64946 5.4431C12.7563 2.54166 16.4415 0.758712 20.7106 0.193928C24.7359 -0.337634 28.5912 0.22715 32.2537 1.98241C32.5031 2.10423 32.7639 2.22051 32.8376 2.50844C32.9113 2.79636 32.883 3.07322 32.6222 3.28363C32.3557 3.49958 32.0723 3.51065 31.7661 3.36669C30.6946 2.85727 29.5947 2.39769 28.4324 2.12084C21.5554 0.47632 15.506 1.95472 10.3922 6.772C8.32847 8.72106 6.87141 11.0799 5.95862 13.7432C5.78287 14.2637 5.78287 14.2305 6.32714 14.2748C6.81472 14.3135 7.00181 14.1197 7.17756 13.6878C9.67213 7.58042 14.2191 3.80412 20.8694 2.76314C26.6069 1.86059 31.6244 3.58263 35.7858 7.55827C37.6057 9.29138 38.921 11.3678 39.7998 13.6989C39.9982 14.2249 40.4291 14.4298 40.9677 14.2582C41.2511 14.1696 41.0754 13.9813 41.0357 13.854C40.6162 12.586 40.0492 11.3789 39.3462 10.2382C38.1499 8.2947 36.6305 6.63911 34.8049 5.24376C34.7086 5.17178 34.6122 5.09426 34.5215 5.01674C34.153 4.69005 34.0963 4.31907 34.3571 3.98684C34.6235 3.64908 35.0431 3.61032 35.4569 3.89825C35.6327 4.02006 35.7971 4.15295 35.9615 4.28031C39.1421 6.78861 41.3419 9.95583 42.5608 13.7654C42.6855 14.153 42.8613 14.2858 43.2638 14.2692C44.1369 14.2415 45.0043 14.2582 45.8774 14.2637C46.6485 14.2637 46.9887 14.607 46.9887 15.3656C46.9887 16.3955 46.9887 17.4254 46.9887 18.4553C46.9887 19.1917 46.5975 19.5793 45.8264 19.5904C45.078 19.6015 44.3297 19.607 43.5813 19.5904C43.2411 19.5848 43.1164 19.7011 43.1277 20.0334C43.1504 20.5428 43.1391 21.0466 43.1277 21.5561C43.1277 21.7886 43.2071 21.927 43.4509 21.9603C44.0575 22.0322 44.307 22.4365 44.3864 22.968C44.5565 24.1308 44.7095 25.2991 44.8683 26.4675C44.976 27.2371 45.0724 28.0012 45.1858 28.7709C45.2878 29.4963 44.8683 30.0001 44.1142 30.0001C41.9882 30.0057 39.8621 30.0057 37.7417 30.0001C37.0104 30.0001 36.5738 29.5184 36.6702 28.8041C36.9367 26.8218 37.2145 24.8451 37.4979 22.8683C37.566 22.3977 37.8381 22.0599 38.337 21.9824C38.6375 21.9326 38.6999 21.7665 38.6999 21.5118C38.6999 21.019 38.6885 20.5262 38.6999 20.0334C38.7112 19.6956 38.5581 19.5959 38.2293 19.6015C36.931 19.6125 35.6327 19.6015 34.3287 19.6015C29.7421 19.6015 25.1555 19.6015 20.5689 19.6015C20.3704 19.6015 20.1663 19.607 19.9793 19.5627C19.5881 19.4741 19.3783 19.2249 19.401 18.8152C19.418 18.4221 19.6618 18.2172 20.0246 18.1452C20.2174 18.1064 20.4215 18.1231 20.6199 18.1231C28.7046 18.1231 36.7949 18.1231 44.8796 18.1231C45.3256 18.1231 45.5486 17.9016 45.5486 17.4586C45.5486 17.0267 45.5316 16.5893 45.5486 16.1574C45.5656 15.8196 45.4125 15.6923 45.0894 15.72C44.9703 15.731 44.8456 15.72 44.7209 15.72C30.5472 15.72 16.3791 15.72 2.20543 15.72C1.66494 15.72 1.39469 15.9894 1.39469 16.5284C1.39469 16.9326 1.40603 17.3368 1.39469 17.7355C1.38335 18.0289 1.50808 18.1452 1.8029 18.1231C1.93896 18.112 2.0807 18.1231 2.21677 18.1231C6.95645 18.1231 11.6961 18.1231 16.4358 18.1231C16.6343 18.1231 16.8384 18.1064 17.0311 18.1507C17.394 18.2338 17.6321 18.4497 17.6321 18.8373C17.6321 19.2139 17.4393 19.463 17.0651 19.5572C16.8894 19.6015 16.7023 19.6015 16.5209 19.6015C13.9696 19.6015 11.4127 19.6015 8.8614 19.6015C8.25476 19.6015 8.24909 19.6015 8.24909 20.1995C8.24909 20.648 8.24909 21.0965 8.24909 21.545C8.24909 21.7886 8.33414 21.927 8.6006 21.9769C9.14487 22.071 9.38866 22.442 9.46236 22.9459C9.7345 24.8783 10.0066 26.8108 10.2731 28.7487C10.3808 29.5129 9.95561 30.0001 9.16755 30.0001C7.0585 30.0057 4.94946 30.0057 2.84041 30.0001C2.07503 30.0001 1.66116 29.5129 1.76888 28.782C1.84825 28.2338 1.91628 27.6912 1.98999 27.143C2.05802 26.6446 2.40386 26.329 2.82907 26.3844C3.28263 26.4398 3.5491 26.844 3.47539 27.3479C3.45271 27.5084 3.43004 27.6745 3.40736 27.8351C3.34688 28.3113 3.55665 28.5494 4.03667 28.5494C5.42569 28.5494 6.82039 28.5439 8.20941 28.5494C8.55525 28.5494 8.731 28.4497 8.67431 28.0843C8.46454 26.6391 8.25476 25.1939 8.062 23.7432C8.02232 23.4664 7.9146 23.3611 7.62545 23.3667C6.55392 23.3778 5.48806 23.3778 4.41653 23.3667C4.11604 23.3667 3.95163 23.4442 3.9573 23.7654C3.9573 23.8982 3.91761 24.0311 3.87793 24.1585C3.75887 24.535 3.48673 24.7399 3.0842 24.6845C2.693 24.6291 2.44922 24.3689 2.44922 23.9758C2.44922 23.5162 2.51158 23.0511 2.65332 22.6081C2.76671 22.2537 3.0275 22.0212 3.41303 21.9713C3.71918 21.9326 3.83257 21.7941 3.82123 21.5007C3.80422 20.9913 3.80422 20.4874 3.82123 19.978C3.83257 19.679 3.6965 19.5848 3.41303 19.5904C2.693 19.6015 1.97865 19.5848 1.25862 19.5959C0.708685 19.607 0.272135 19.4353 0 18.9481L0 14.8285ZM22.7233 9.1751C22.7233 7.6081 22.7233 6.0411 22.7233 4.4741C22.7233 4.21386 22.7176 3.9813 22.3434 4.03114C21.4533 4.14742 20.5575 4.23601 19.6788 4.45196C19.3896 4.52394 19.2762 4.65129 19.2762 4.93922C19.2819 7.91264 19.2819 10.8805 19.2762 13.854C19.2762 14.164 19.384 14.2748 19.7071 14.2692C20.5462 14.2526 21.391 14.2471 22.23 14.2692C22.6042 14.2803 22.7403 14.164 22.7346 13.7875C22.7176 12.2482 22.729 10.7144 22.729 9.1751H22.7233ZM24.237 9.09758C24.237 10.6646 24.2427 12.2316 24.2314 13.7986C24.2314 14.1419 24.3334 14.2748 24.7019 14.2692C25.541 14.2471 26.3858 14.2526 27.2248 14.2692C27.5537 14.2748 27.6897 14.1806 27.6897 13.8373C27.6784 10.8805 27.6841 7.92372 27.6897 4.96691C27.6897 4.66237 27.5934 4.51287 27.2759 4.44088C26.4425 4.24708 25.592 4.15295 24.7473 4.03667C24.3561 3.9813 24.2314 4.10312 24.237 4.47964C24.254 6.01896 24.2427 7.55273 24.2427 9.09204L24.237 9.09758ZM17.7682 9.72327C17.7682 8.32239 17.7625 6.91597 17.7682 5.51508C17.7682 5.17732 17.7001 5.03889 17.3259 5.19946C16.3735 5.60921 15.4607 6.0854 14.5932 6.65572C14.3948 6.78308 14.3154 6.94365 14.3154 7.17621C14.3154 9.39659 14.3211 11.6225 14.3154 13.8429C14.3154 14.1917 14.4685 14.2692 14.786 14.2637C15.6251 14.2471 16.4642 14.2415 17.3089 14.2637C17.6831 14.2748 17.7738 14.1308 17.7738 13.793C17.7625 12.4365 17.7682 11.0799 17.7682 9.71774V9.72327ZM29.1978 9.63468C29.1978 11.0245 29.2035 12.4088 29.1922 13.7986C29.1922 14.1419 29.2829 14.2803 29.6571 14.2692C30.4961 14.2471 31.3352 14.2471 32.1743 14.2692C32.5428 14.2803 32.6449 14.1419 32.6449 13.7986C32.6335 11.6059 32.6335 9.4132 32.6449 7.22051C32.6449 6.95473 32.5542 6.77754 32.3274 6.62804C31.494 6.09648 30.6322 5.62028 29.7138 5.24376C29.2205 5.03889 29.1978 5.04996 29.1978 5.56491C29.1978 6.9215 29.1978 8.27809 29.1978 9.64022V9.63468ZM40.9677 28.5439C41.716 28.5439 42.4644 28.5383 43.2128 28.5439C43.5643 28.5439 43.655 28.4054 43.604 28.0732C43.3885 26.6446 43.1844 25.2161 43.003 23.782C42.9633 23.4442 42.8216 23.3611 42.5098 23.3667C41.4723 23.3778 40.4347 23.3833 39.3916 23.3667C39.0401 23.3611 38.9153 23.483 38.87 23.8152C38.6885 25.2327 38.4788 26.6502 38.2803 28.0621C38.2293 28.3999 38.3427 28.5605 38.7226 28.5549C39.4709 28.5383 40.2193 28.5549 40.9677 28.5549V28.5439ZM12.813 8.04C10.8967 9.77865 9.53607 11.7277 8.64596 13.9868C8.56659 14.1862 8.65163 14.2582 8.85573 14.2582C10.0633 14.2582 11.2709 14.2582 12.4785 14.2582C12.7053 14.2582 12.8187 14.1806 12.8187 13.9425C12.8187 12.0156 12.8187 10.0943 12.8187 8.03446L12.813 8.04ZM34.1926 8.1009C34.17 8.21165 34.153 8.26702 34.153 8.32239C34.153 10.1718 34.153 12.0212 34.1473 13.8761C34.1473 14.2083 34.3004 14.2748 34.5952 14.2692C35.7121 14.2582 36.8289 14.2526 37.9402 14.2692C38.3484 14.2748 38.4051 14.164 38.2577 13.8097C37.6454 12.3479 36.846 10.9968 35.8255 9.77311C35.3379 9.18618 34.822 8.62693 34.1926 8.1009ZM6.75802 20.7587C6.75802 19.5129 6.75802 19.5184 5.69216 19.5959C5.44837 19.6125 5.32931 19.6956 5.32931 19.9448C5.32931 20.4819 5.32931 21.0134 5.32931 21.5505C5.32931 21.7056 5.34632 21.8717 5.53908 21.8938C5.90193 21.9326 6.29879 22.0212 6.61628 21.8551C6.90543 21.7056 6.71834 21.3401 6.75802 21.0743C6.77503 20.9747 6.75802 20.8695 6.75802 20.7642V20.7587ZM41.6423 20.7698C41.614 19.4464 41.8748 19.607 40.5765 19.5959C40.5595 19.5959 40.5481 19.5959 40.5311 19.5959C40.2987 19.5848 40.208 19.7011 40.208 19.9226C40.208 20.4708 40.208 21.019 40.208 21.5727C40.208 21.7941 40.3043 21.8827 40.5311 21.9104C41.5403 22.0322 41.6423 21.9547 41.6423 20.9913C41.6423 20.9193 41.6423 20.8418 41.6423 20.7698Z" fill="#4A3121"/>
  </g>
  <defs>
    <clipPath id="clip0_2636_51227">
      <rect width="47" height="30" fill="white"/>
    </clipPath>
  </defs>
</svg>