<svg width="93" height="31" viewBox="0 0 93 31" fill="none" xmlns="http://www.w3.org/2000/svg">
<g id="Isolation_Mode" clipPath="url(#clip0_4464_14032)">
<g id="Group">
<path id="Vector" d="M26.2344 8.03955C26.2344 6.3569 27.4709 5.25 29.0091 5.25C29.9715 5.25 30.6343 5.67066 31.1039 6.25279L30.5706 6.59272C30.2307 6.15506 29.657 5.84913 29.0091 5.84913C27.8278 5.84913 26.9312 6.74569 26.9312 8.03955C26.9312 9.33341 27.8278 10.23 29.0091 10.23C29.6549 10.23 30.1903 9.92191 30.4644 9.64784V8.55582H28.6054V7.95669H31.1294V9.89641C30.628 10.4615 29.8929 10.8355 29.0112 10.8355C27.4751 10.8355 26.2365 9.71158 26.2365 8.03742L26.2344 8.03955Z" fill="#003125"/>
<path id="Vector_2" d="M36.6366 10.7336L35.2705 8.58993H34.187V10.7336H33.5156V5.33936H35.6827C36.6685 5.33936 37.3802 5.97035 37.3802 6.96464C37.3802 7.95894 36.7088 8.46883 35.9737 8.53257L37.4291 10.7315H36.6366V10.7336ZM36.6855 6.96464C36.6855 6.35065 36.2414 5.93848 35.6019 5.93848H34.187V8.00143H35.6019C36.2414 8.00143 36.6855 7.57227 36.6855 6.96677V6.96464Z" fill="#003125"/>
<path id="Vector_3" d="M42.1802 5.33936H41.3474L39.1719 10.7336H39.941L40.4169 9.52899L40.6187 8.93836L41.7596 6.02771L42.909 8.93836L43.1023 9.52899L43.5782 10.7336H44.3473L42.1802 5.33936Z" fill="#003125"/>
<path id="Vector_4" d="M47.5271 10.7336L45.3516 5.33936H46.1207L47.9393 9.99639L49.7579 5.33936H50.527L48.3599 10.7336H47.5271Z" fill="#003125"/>
<path id="Vector_5" d="M52.5234 10.7336V5.33936H53.1948V10.7336H52.5234Z" fill="#003125"/>
<path id="Vector_6" d="M57.0888 10.7336V5.93848H55.3828V5.33936H59.4747V5.93848H57.7602V10.7336H57.0888Z" fill="#003125"/>
<path id="Vector_7" d="M63.2204 10.7334V8.45379L61.0938 5.34131H61.8777L63.5519 7.84829L65.226 5.34131H66.01L63.8918 8.45379V10.7334H63.2204Z" fill="#003125"/>
<path id="Vector_8" d="M41.7581 9.63158L41.1797 10.21L41.7581 10.7883L42.3365 10.21L41.7581 9.63158Z" fill="#003125"/>
</g>
<g id="Group_2">
<g id="Group_3">
<path id="Vector_9" d="M12.5788 30.6863L11.1894 27.1064H3.7704L2.38094 30.6863C2.28746 30.9051 2.13024 31.0156 1.90929 31.0156H1.48438L7.70296 15.2344H7.93879L14.1574 31.0156H13.0505C12.8317 31.0156 12.6744 30.9051 12.5788 30.6863ZM10.9535 26.5179L7.49051 17.5671L4.0041 26.5179H10.9535Z" fill="#003125"/>
<path id="Vector_10" d="M14.3791 31.1692H13.047C12.7666 31.1692 12.5541 31.0226 12.4351 30.7464V30.7422L11.0818 27.26H3.87102L2.5198 30.7422C2.3987 31.0226 2.18837 31.1692 1.9058 31.1692H1.25781L7.59538 15.082H8.03941L14.377 31.1692H14.3791ZM12.7177 30.6296C12.7878 30.7932 12.8898 30.8654 13.047 30.8654H13.9308L7.8312 15.388H7.80358L1.70609 30.8633H1.9058C2.06515 30.8633 2.16712 30.791 2.23723 30.6253L3.66281 26.9519H11.2921L12.7177 30.6274V30.6296ZM11.1731 26.6694H3.77967L7.48915 17.145L11.1731 26.6694ZM4.22582 26.3656H10.7291L7.48915 17.9884L4.22582 26.3656Z" fill="#003125"/>
</g>
<g id="Group_4">
<path id="Vector_11" d="M28.0927 31.0156C27.8888 31.0156 27.7082 30.9136 27.551 30.7097L23.8054 26.3055C23.3507 25.7552 23.032 25.3048 22.8514 24.9521C22.6708 24.5994 22.5795 24.2255 22.5795 23.8325C22.5795 23.4713 22.673 23.1654 22.862 22.9147C23.0511 22.664 23.287 22.4324 23.5695 22.2199C23.8521 22.0075 24.1538 21.795 24.4767 21.5847C24.7996 21.3722 25.1013 21.1364 25.3839 20.8772C25.6665 20.618 25.9023 20.3121 26.0914 19.9594C26.2805 19.6067 26.3739 19.1776 26.3739 18.6762C26.3739 17.7966 26.0871 17.1019 25.5135 16.592C24.9399 16.0821 24.1665 15.8271 23.1935 15.8271H20.2722V31.0199H18.8594V15.2344H23.4527C24.8336 15.2344 25.9427 15.5361 26.7734 16.1416C27.6062 16.7471 28.0226 17.5501 28.0226 18.5551C28.0226 19.0883 27.9121 19.5451 27.6933 19.9212C27.4745 20.2972 27.2025 20.6201 26.8817 20.8878C26.5588 21.1555 26.2104 21.3829 25.8343 21.5719C25.4583 21.761 25.1077 21.948 24.7869 22.1371C24.4661 22.3262 24.1941 22.5174 23.9753 22.715C23.7565 22.9104 23.646 23.1505 23.646 23.4331C23.646 23.5754 23.6651 23.7114 23.7055 23.8452C23.7437 23.9791 23.8202 24.132 23.9286 24.3041C24.0391 24.4762 24.1963 24.6844 24.4002 24.9287C24.6042 25.1731 24.8634 25.4833 25.1778 25.8593L29.6288 31.0177H28.097L28.0927 31.0156Z" fill="#003125"/>
<path id="Vector_12" d="M29.9605 31.1692H28.0972C27.8444 31.1692 27.6213 31.046 27.4344 30.8038L23.693 26.4038C23.232 25.8472 22.9048 25.3819 22.72 25.0207C22.5288 24.6468 22.4332 24.2474 22.4332 23.8331C22.4332 23.4401 22.5394 23.1001 22.7455 22.8239C22.9409 22.5626 23.1895 22.3183 23.4827 22.0995C23.7653 21.887 24.0733 21.6703 24.3963 21.4578C24.7107 21.2518 25.0081 21.0181 25.2843 20.7652C25.552 20.5188 25.7793 20.2235 25.9599 19.8878C26.1363 19.5585 26.2255 19.1506 26.2255 18.6768C26.2255 17.8355 25.9599 17.1896 25.416 16.7052C24.8743 16.2229 24.1286 15.9786 23.198 15.9786H20.4297V31.1713H18.7109V15.082H23.4572C24.8658 15.082 26.0131 15.3965 26.8671 16.019C27.7382 16.65 28.178 17.504 28.178 18.5557C28.178 19.1144 28.059 19.601 27.8274 19.9983C27.6001 20.3892 27.3154 20.727 26.9797 21.0053C26.6504 21.2794 26.2871 21.5152 25.9026 21.7064C25.5308 21.8934 25.1802 22.0803 24.8637 22.2673C24.5514 22.45 24.2858 22.637 24.0755 22.8261C23.8885 22.9939 23.7971 23.1915 23.7971 23.4316C23.7971 23.5569 23.8141 23.6823 23.8502 23.8012C23.8842 23.9202 23.9544 24.0625 24.0563 24.2219C24.1626 24.3876 24.3177 24.5937 24.5152 24.8295C24.7192 25.0738 24.9784 25.384 25.2928 25.7601L29.9605 31.1692ZM20.1238 15.6705H23.198C24.205 15.6705 25.0209 15.9404 25.62 16.4757C26.2234 17.0133 26.5314 17.7526 26.5314 18.6747C26.5314 19.1994 26.4295 19.6562 26.2319 20.0301C26.0364 20.3977 25.7878 20.7206 25.4947 20.9904C25.2078 21.2539 24.8955 21.4961 24.5684 21.7128C24.2497 21.9231 23.948 22.1334 23.6697 22.3438C23.3998 22.5456 23.1725 22.7687 22.9941 23.0088C22.8262 23.2318 22.7412 23.5102 22.7412 23.8352C22.7412 24.2006 22.8262 24.5554 22.9962 24.8848C23.1704 25.2268 23.4848 25.673 23.931 26.2105L27.6745 30.6147C27.8062 30.7868 27.9443 30.8675 28.0994 30.8675H29.2976L25.0634 25.9619C24.7468 25.5837 24.4897 25.2735 24.2837 25.0292C24.0755 24.7828 23.914 24.5661 23.8014 24.3897C23.6824 24.2028 23.6038 24.0392 23.5592 23.8926C23.5167 23.746 23.4933 23.593 23.4933 23.4379C23.4933 23.1107 23.6208 22.8303 23.8736 22.6051C24.1009 22.4033 24.3814 22.2036 24.7107 22.0102C25.0336 21.8211 25.3884 21.6299 25.7687 21.4408C26.1341 21.2581 26.4762 21.035 26.7885 20.7759C27.0945 20.5209 27.3579 20.2107 27.5661 19.8517C27.7722 19.5011 27.8742 19.0656 27.8742 18.5621C27.8742 17.5996 27.4854 16.8497 26.6887 16.2718C25.8877 15.6897 24.7999 15.3943 23.4572 15.3943H19.0169V30.8718H20.1259V15.6705H20.1238Z" fill="#003125"/>
</g>
<g id="Group_5">
<path id="Vector_13" d="M42.9616 30.6863L41.5722 27.1064H34.1532L32.7637 30.6863C32.6703 30.9051 32.5131 31.0156 32.2921 31.0156H31.8672L38.0858 15.2344H38.3216L44.5402 31.0156H43.4333C43.2145 31.0156 43.0572 30.9051 42.9616 30.6863ZM41.3364 26.5179L37.8733 17.5671L34.3869 26.5179H41.3364Z" fill="#003125"/>
<path id="Vector_14" d="M44.7619 31.1692H43.4298C43.1494 31.1692 42.9369 31.0226 42.8179 30.7464V30.7422L41.4646 27.26H34.2538L32.9026 30.7422C32.7815 31.0226 32.5712 31.1692 32.2886 31.1692H31.6406L37.9782 15.082H38.4222L44.7598 31.1692H44.7619ZM43.1026 30.6296C43.1727 30.7932 43.2747 30.8654 43.4319 30.8654H44.3158L38.2183 15.388H38.1906L32.0932 30.8654H32.2929C32.4522 30.8654 32.5542 30.7932 32.6243 30.6274L34.0499 26.9541H41.6792L43.1048 30.6296H43.1026ZM41.5581 26.6694H34.1646L37.8741 17.145L41.5581 26.6694ZM34.6108 26.3656H41.114L37.8741 17.9884L34.6108 26.3656Z" fill="#003125"/>
</g>
<g id="Group_6">
<path id="Vector_15" d="M49.2344 31.0156V15.2344H49.4702L59.8338 28.1198V17.9793H60.5413V31.0156H60.4244L49.9419 18.0133V31.0156H49.2344Z" fill="#003125"/>
<path id="Vector_16" d="M60.6988 31.1692H60.3546L60.3079 31.1118L50.0972 18.4452V31.1671H49.0859V15.082H49.547L59.6854 27.687V15.0905H60.6967V31.1692H60.6988ZM49.3919 30.8633H49.7934V17.5805L60.3929 30.7294V18.1308H59.9913V28.5517L49.4025 15.388H49.3919V30.8654V30.8633Z" fill="#003125"/>
</g>
<g id="Group_7">
<path id="Vector_17" d="M65.2656 15.2344H66.466C66.7167 15.2344 66.8909 15.3364 66.9844 15.5403L71.3419 23.5244L75.7227 15.5403C75.8332 15.3364 76.0053 15.2344 76.2411 15.2344H76.6894L71.72 24.1851V31.0156H70.3072V24.3742L65.2656 15.2344Z" fill="#003125"/>
<path id="Vector_18" d="M71.8723 31.1692H70.1535V24.4131L65.0078 15.082H66.4674C66.8562 15.082 67.0368 15.2924 67.1217 15.473L71.3433 23.2085L75.5902 15.4687C75.7262 15.2159 75.9514 15.0842 76.2425 15.0842H76.95L71.8723 24.2261V31.1692ZM70.4594 30.8633H71.5685V24.1454L76.4316 15.3858H76.2425C76.064 15.3858 75.9408 15.4581 75.8579 15.611L71.3411 23.8416L66.8456 15.6025C66.7776 15.4538 66.6565 15.3858 66.4653 15.3858H65.522L70.4573 24.3324V30.8611L70.4594 30.8633Z" fill="#003125"/>
</g>
<g id="Group_8">
<path id="Vector_19" d="M89.196 30.6868L87.8066 27.1069H80.3876L78.9981 30.6868C78.9046 30.9056 78.7474 31.0161 78.5265 31.0161H78.1016L84.3201 15.2349H84.556L90.7746 31.0161H89.6677C89.4488 31.0161 89.2916 30.9056 89.196 30.6868ZM87.5707 26.5184L84.1077 17.5676L80.6213 26.5184H87.5707Z" fill="#003125"/>
<path id="Vector_20" d="M90.9963 31.1692H89.6642C89.3837 31.1692 89.1713 31.0226 89.0523 30.7464V30.7422L87.699 27.26H80.4882L79.137 30.7422C79.0159 31.0226 78.8056 31.1692 78.523 31.1692H77.875L84.2126 15.082H84.6566L90.9942 31.1692H90.9963ZM89.3349 30.6296C89.405 30.7932 89.507 30.8654 89.6642 30.8654H90.548L84.4505 15.388H84.4229L78.3254 30.8654H78.5251C78.6845 30.8654 78.7864 30.7932 78.8565 30.6274L80.2821 26.9541H87.9114L89.337 30.6296H89.3349ZM87.7903 26.6694H80.3969L84.1063 17.145L87.7903 26.6694ZM80.843 26.3656H87.3463L84.1063 17.9884L80.843 26.3656Z" fill="#003125"/>
</g>
</g>
</g>
<defs>
<clipPath id="clip0_4464_14032">
<rect width="104.744" height="30.252" fill="white" transform="translate(-6.25 0.749023)"/>
</clipPath>
</defs>
</svg>
