<svg width="147" height="56" viewBox="0 0 147 56" fill="none" xmlns="http://www.w3.org/2000/svg">
<g id="Aranya_white 2" clipPath="url(#clip0_1474_11267)">
<g id="Layer_1-2" filter="url(#filter0_d_1474_11267)">
<path id="Vector" d="M46.6609 25.0757V28.6804C44.1009 25.575 42.1505 24.8544 40.4812 24.8544C38.8119 24.8544 36.9736 25.7982 35.1352 27.3509C30.1254 31.5098 26.5608 37.2213 21.8263 41.2138V44.4308C21.8263 46.3164 22.5499 47.0369 23.9989 46.6473C23.2734 47.5343 21.5491 48.2568 19.8778 48.2568C17.8173 48.2568 16.6475 47.0918 16.2582 45.3178C13.0829 47.0918 9.79931 48.2568 6.45689 48.2568C2.78213 48.2568 -0.00195312 45.5958 -0.00195312 42.1575C-0.00195312 36.0015 7.79386 35.5589 12.6385 33.0625C14.587 32.0639 16.3132 30.1802 16.3132 27.8502C16.3132 25.7433 14.6439 23.9126 11.5807 23.9126C7.57167 23.9126 5.23197 27.0729 3.56266 30.4563V26.0213C6.0125 24.4686 8.68644 23.3604 12.3042 23.3604C17.0938 23.3604 21.8263 25.1343 21.8263 28.2965C21.8833 31.0691 16.7044 32.0109 12.3612 33.8417C9.13083 35.1731 6.40372 36.9471 6.34675 40.3306C6.34675 43.6573 8.90863 44.9887 11.6376 44.9887C18.9872 44.9887 23.6647 38.7778 28.2871 33.3991V23.9164H29.4569C31.6846 23.9164 34.1895 24.3041 34.4117 27.2998L35.0232 26.7457C37.0837 25.0833 39.5886 23.3622 42.931 23.3622C44.4332 23.3622 45.7151 23.7499 46.6609 25.0814V25.0757ZM34.4117 47.6989H33.2418C30.904 47.6989 28.2871 47.2544 28.2871 43.8729V35.5552C29.569 34.0024 31.2383 31.5627 32.9646 31.5627C33.633 31.5627 34.4117 31.8956 34.4117 32.8942V47.6989Z" fill="white"/>
<path id="Vector_2" d="M62.4198 45.3168C59.2464 47.0908 55.961 48.2558 52.6205 48.2558C48.9457 48.2558 46.1616 45.5948 46.1616 42.1565C46.1616 36.0005 53.9574 35.558 58.8001 33.0615C60.7486 32.0629 62.4768 30.1792 62.4768 27.8492C62.4768 25.7424 60.8056 23.9116 57.7423 23.9116C53.7333 23.9116 51.3955 27.0719 49.7243 30.4554V26.0204C52.1742 24.4676 54.8481 23.3594 58.4659 23.3594C63.2554 23.3594 67.988 25.1334 67.988 28.2955C68.0431 31.0681 62.8642 32.01 58.5229 33.8407C55.2925 35.1721 52.5635 36.9461 52.5084 40.3296C52.5084 43.6563 55.0703 44.9877 57.7993 44.9877C65.1488 44.9877 69.8263 38.7769 74.4468 33.3981V23.9154H75.6167C77.8443 23.9154 80.3493 24.3031 80.5715 27.244L81.1849 26.7447C83.6898 24.6927 86.2517 23.3613 89.5922 23.3613C94.2127 23.3613 96.8866 25.6894 96.8866 30.514V47.7036H94.6039C92.3212 47.7036 90.762 46.1509 90.762 43.8776V30.5688C90.762 26.5216 88.6464 24.8572 86.4739 24.8572C81.0158 24.8572 72.1622 37.6667 67.988 41.2166V44.4336C67.988 46.3192 68.7116 47.0398 70.1587 46.6502C69.4351 47.5372 67.7088 48.2596 66.0395 48.2596C63.979 48.2596 62.8091 47.0946 62.4198 45.3206V45.3168ZM80.5715 47.7017H79.4035C77.0657 47.7017 74.4487 47.2572 74.4487 43.8757V35.558C75.7287 34.0052 77.4 31.5655 79.1262 31.5655C79.7396 31.5655 80.5733 31.8984 80.5733 32.897V47.7017H80.5715Z" fill="white"/>
<path id="Vector_3" d="M112.681 48.1078C112.704 48.1646 112.727 48.2194 112.753 48.2686C112.862 48.3064 112.96 48.3423 113.033 48.365C113.014 48.4104 112.987 48.4596 112.968 48.505C113.112 48.5977 113.259 48.6884 113.405 48.7792C113.488 48.6014 113.572 48.4256 113.646 48.2553L124.615 23.9111H124.002L116.206 41.2691L108.131 26.5192C107.073 24.5787 106.35 23.913 104.01 23.913H99.7236L113.031 48.3121C112.917 48.2402 112.797 48.1778 112.679 48.1097L112.681 48.1078Z" fill="white"/>
<path id="Vector_4" d="M144.882 28.2927C144.882 31.0653 139.703 32.0072 135.36 33.8379C132.132 35.1693 129.346 36.9433 129.401 40.3268C129.401 45.6488 135.694 46.7022 139.257 44.2644C141.54 42.7665 143.433 39.6062 144.491 36.1131H144.825V44.4308C144.825 46.3164 145.549 47.0369 146.998 46.6473C146.329 47.5343 144.548 48.2568 142.877 48.2568C140.482 48.2568 139.257 46.6474 139.257 44.2644C137.309 45.8171 133.634 48.2568 129.456 48.2568C125.781 48.2568 122.997 45.5958 122.997 42.1575C122.997 36.0015 130.793 35.5589 135.636 33.0625C137.584 32.0639 139.312 30.1802 139.312 27.8502C139.312 25.7433 137.698 23.9126 134.578 23.9126C130.569 23.9126 128.286 27.0729 126.56 30.4563V26.0213C129.01 24.4686 131.682 23.3604 135.301 23.3604C140.089 23.3604 144.879 25.1343 144.879 28.2965L144.882 28.2927Z" fill="white"/>
<path id="Vector_5" d="M110.71 43.4766C110.797 43.6373 110.883 43.8 110.974 43.9588C111.566 44.9839 112.315 45.8406 113.22 46.5234C112.315 49.3508 111.293 51.4255 110.153 52.7475C109.303 53.7347 107.442 54.3475 106.53 54.5952C106.219 54.6785 106.004 54.9621 106.004 55.2837C106.004 55.7224 106.399 56.0628 106.834 55.9929C107.2 55.9342 107.557 55.8397 107.905 55.7092C108.731 55.399 109.489 54.9413 110.174 54.3342C110.862 53.729 111.477 53.0047 112.024 52.1669C112.571 51.329 113.031 50.4099 113.407 49.417C114.094 47.5636 114.842 45.5815 115.648 43.4803H110.708L110.71 43.4766Z" fill="white"/>
<path id="Vector_6" fill-rule="evenodd" clipRule="evenodd" d="M99.2488 47.9887C99.6077 47.1546 100.134 46.4473 100.821 45.8572C101.418 45.3447 102.094 44.9778 102.84 44.73C102.88 44.7168 102.924 44.7054 102.965 44.696C102.994 44.6884 103.026 44.6903 103.055 44.6865C103.098 44.7452 103.047 44.7565 103.02 44.7697C102.42 45.0799 102.111 45.5962 102.056 46.2411C102.01 46.7556 102.249 47.1981 102.585 47.5858C102.948 48.0113 103.385 48.365 103.75 48.7887C104.656 49.8459 105.275 51.0468 105.601 52.4028C105.839 53.4014 105.905 54.4038 105.768 55.4175C105.738 55.6463 105.706 55.6577 105.52 55.5291C104.895 55.0979 104.287 54.644 103.677 54.1938C103.085 53.757 102.544 53.1007 102.094 52.5258C101.64 51.9489 101.266 51.3097 101.024 50.6194C100.899 50.2638 100.732 49.791 100.747 49.4109C100.743 49.4865 100.734 49.5773 100.738 49.6681C100.757 50.105 100.808 50.5418 100.901 50.9693C101.176 52.2345 101.771 53.3409 102.669 54.2733C102.992 54.6061 103.347 54.9087 103.681 55.2303C103.886 55.4269 104.154 55.5593 104.403 55.6936C104.454 55.722 104.545 55.7333 104.53 55.8052C104.513 55.896 104.418 55.8638 104.355 55.8619C103.32 55.8014 102.356 55.5158 101.475 54.9598C100.381 54.2714 99.6039 53.3277 99.1671 52.1135C98.9487 51.5045 98.8215 50.8785 98.8253 50.226C98.8272 49.4506 98.9392 48.6998 99.2488 47.983V47.9887Z" fill="white"/>
<path id="Vector_7" d="M66.2415 13.9242L65.186 12.873L64.1305 13.9242L65.186 14.9753L66.2415 13.9242Z" fill="white"/>
<path id="Vector_8" d="M36.8139 9.97261C36.8139 6.91256 39.0738 4.89648 41.8826 4.89648C43.6412 4.89648 44.8528 5.66244 45.7093 6.72154L44.7332 7.33998C44.1122 6.54566 43.0639 5.98585 41.8807 5.98585C39.7233 5.98585 38.0825 7.61989 38.0825 9.9745C38.0825 12.3291 39.7233 13.9632 41.8807 13.9632C43.062 13.9632 44.0381 13.4033 44.5414 12.904V10.9182H41.142V9.82887H45.753V13.3598C44.8376 14.3906 43.4931 15.0676 41.8807 15.0676C39.0738 15.0676 36.812 13.0213 36.812 9.97639L36.8139 9.97261Z" fill="white"/>
<path id="Vector_9" d="M55.8162 14.8732L53.3189 10.9735H51.3381V14.8732H50.1113V5.05762H54.071C55.8732 5.05762 57.1741 6.20561 57.1741 8.01554C57.1741 9.82547 55.9473 10.7522 54.6027 10.8694L57.2633 14.8713H55.8162V14.8732ZM55.9055 8.01554C55.9055 6.89781 55.0927 6.14698 53.9247 6.14698H51.3381V9.89922H53.9247C55.0927 9.89922 55.9055 9.12003 55.9055 8.01554Z" fill="white"/>
<path id="Vector_10" d="M65.954 5.05762H64.4309L60.4561 14.8732H61.8595L62.7312 12.6794L63.0996 11.6051L65.1829 6.30774L67.2814 11.6051L67.6366 12.6794L68.5082 14.8732H69.9117L65.9521 5.05762H65.954Z" fill="white"/>
<path id="Vector_11" d="M75.7209 14.8732L71.7461 5.05762H73.1495L76.4749 13.5342L79.8002 5.05762H81.2036L77.244 14.8732H75.7228H75.7209Z" fill="white"/>
<path id="Vector_12" d="M84.8516 14.8732V5.05762H86.0784V14.8732H84.8516Z" fill="white"/>
<path id="Vector_13" d="M93.1872 14.8732V6.14698H90.0688V5.05762H97.5456V6.14698H94.414V14.8732H93.1872Z" fill="white"/>
<path id="Vector_14" d="M104.401 14.8732V10.7238L100.516 5.05762H101.949L105.009 9.61932L108.068 5.05762H109.502L105.63 10.7238V14.8732H104.403H104.401Z" fill="white"/>
</g>
</g>
<defs>
<filter id="filter0_d_1474_11267" x="-4.00195" y="0.896484" width="155" height="59.1055" filterUnits="userSpaceOnUse" color-interpolation-filters="sRGB">
<feFlood flood-opacity="0" result="BackgroundImageFix"/>
<feColorMatrix in="SourceAlpha" type="matrix" values="0 0 0 0 0 0 0 0 0 0 0 0 0 0 0 0 0 0 127 0" result="hardAlpha"/>
<feOffset/>
<feGaussianBlur stdDeviation="2"/>
<feComposite in2="hardAlpha" operator="out"/>
<feColorMatrix type="matrix" values="0 0 0 0 0 0 0 0 0 0 0 0 0 0 0 0 0 0 0.8 0"/>
<feBlend mode="normal" in2="BackgroundImageFix" result="effect1_dropShadow_1474_11267"/>
<feBlend mode="normal" in="SourceGraphic" in2="effect1_dropShadow_1474_11267" result="shape"/>
</filter>
<clipPath id="clip0_1474_11267">
<rect width="147" height="56" fill="white"/>
</clipPath>
</defs>
</svg>
