<svg width="50" height="53" viewBox="0 0 50 53" fill="none" xmlns="http://www.w3.org/2000/svg">
<g id="Isolation_Mode" clip-path="url(#clip0_4715_50080)">
<g id="Group 63">
<g id="Group">
<path id="Vector" d="M36.0437 34.1997C38.7837 34.1997 41.5236 34.1997 44.2412 34.1997C45.0877 34.1997 45.355 34.467 45.355 35.3135C45.355 38.5657 45.355 41.818 45.355 45.0703C45.355 45.8499 45.0877 46.1395 44.308 46.1395C38.7614 46.1395 33.2147 46.1395 27.6681 46.1395C26.933 46.1395 26.6211 45.8276 26.6211 45.0925C26.6211 41.818 26.6211 38.5212 26.6211 35.2467C26.6211 34.4893 26.933 34.1997 27.7126 34.1997C30.4748 34.1997 33.2593 34.1997 36.0215 34.1997H36.0437ZM36.8902 35.8704V44.402H43.662V35.8704H36.8902ZM35.1082 44.4465V35.8927H28.3363V44.4243C28.4923 44.4243 28.6259 44.4688 28.7373 44.4688C30.8535 44.4688 32.9474 44.4688 35.1082 44.4688V44.4465Z" fill="#003125"/>
<path id="Vector_2" d="M13.6597 32.4187C12.0336 32.4187 10.3852 32.4187 8.75907 32.4187C8.0017 32.4187 7.73438 32.1514 7.73438 31.394C7.73438 28.1195 7.73438 24.8227 7.73438 21.5481C7.73438 20.7907 8.0017 20.5234 8.75907 20.5234C12.0336 20.5234 15.3304 20.5234 18.6049 20.5234C19.3846 20.5234 19.6519 20.7907 19.6519 21.5927C19.6519 24.8672 19.6519 28.1195 19.6519 31.394C19.6519 32.1736 19.3846 32.441 18.6049 32.4632C16.9565 32.4632 15.3081 32.4632 13.6597 32.4632V32.4187ZM12.9024 22.1941H9.44962V25.5578H12.9024V22.1941ZM12.9024 30.748V27.3398H9.44962V30.748H12.9024ZM18.0035 22.1941H14.6399V25.5578H18.0035V22.1941ZM14.6399 27.3398V30.7257H17.9812V27.3398H14.6399Z" fill="#003125"/>
<path id="Vector_3" d="M13.7888 10.2534C16.2169 10.2534 18.0213 12.08 18.0213 14.5304C18.0213 16.847 16.0832 18.7627 13.7443 18.7405C11.4053 18.7405 9.48964 16.8025 9.51191 14.4858C9.51191 12.0355 11.3385 10.2534 13.7666 10.2534H13.7888ZM13.7888 11.9018C12.3409 11.9018 11.1826 13.0379 11.1826 14.4413C11.1826 15.9115 12.2741 17.003 13.7443 17.0252C15.2145 17.0252 16.3728 15.9115 16.3728 14.419C16.3728 13.0379 15.2145 11.8795 13.8111 11.8795L13.7888 11.9018Z" fill="#003125"/>
<path id="Vector_4" d="M12.8442 44.3347C12.8442 44.602 12.8442 44.8916 12.8442 45.1589C12.7997 45.6267 12.5323 45.8717 12.0423 45.894C11.5522 45.894 11.2626 45.649 11.2181 45.1812C11.1513 44.6243 11.1513 44.0451 11.2181 43.4882C11.2626 43.0427 11.5522 42.7754 12.0423 42.7754C12.5101 42.7754 12.7997 43.0427 12.8442 43.5105C12.8665 43.7778 12.8442 44.0674 12.8442 44.3347Z" fill="#003125"/>
</g>
<path id="Vector_5" d="M52.1615 52.4877C51.8719 52.9109 51.471 53 50.9809 53C32.9599 53 14.9388 53 -3.08228 53C-3.17138 53 -3.26048 53 -3.34958 53C-3.92875 52.9555 -4.24062 52.6436 -4.26289 52.1535C-4.26289 51.6635 -3.92877 51.3293 -3.37188 51.307C-2.74816 51.2848 -2.12441 51.307 -1.50069 51.307C-1.30021 51.307 -1.09973 51.307 -0.876973 51.307C-0.876973 51.1066 -0.854709 50.9284 -0.854709 50.7724C-0.854709 48.233 -0.854709 45.6936 -0.854709 43.1764C-0.854709 42.82 -0.899254 42.6418 -1.30022 42.5081C-3.12683 41.9512 -4.28516 40.3251 -4.28516 38.4094C-4.28516 35.0235 -4.28516 31.6599 -4.28516 28.2739C-4.28516 26.6033 -3.57236 25.3336 -2.12444 24.5094C-0.67652 23.6852 0.815957 23.7074 2.26388 24.5985C2.33071 24.643 2.39753 24.6653 2.50891 24.7321V16.9579C2.30843 17.0024 2.10795 17.0693 1.8852 17.1138C0.905064 17.2697 0.103143 16.9802 -0.476026 16.1782C-1.09975 15.3318 -1.16657 14.4184 -0.72106 13.4829C-0.56513 13.1487 -0.320078 12.8591 -0.0750451 12.6141C3.89003 8.67131 7.85511 4.75078 11.8202 0.830253C12.5107 0.139706 13.3349 -0.172154 14.2705 0.0951544C14.716 0.228809 15.1838 0.496117 15.5402 0.807977C16.3422 1.5208 17.0327 2.32273 17.8346 3.03555C18.0574 3.23603 18.3915 3.39196 18.6811 3.39196C21.9556 3.41424 25.2302 3.39196 28.4824 3.39196C29.3734 3.39196 29.7744 3.637 29.7744 4.21616C29.7744 4.81761 29.3735 5.08492 28.4602 5.08492C25.8539 5.08492 23.2476 5.08492 20.6414 5.08492C20.4409 5.08492 20.2404 5.08492 19.9285 5.08492C20.0845 5.2854 20.1736 5.39678 20.285 5.50816C21.7552 6.97835 23.2031 8.44855 24.6956 9.89647C24.896 10.097 25.2302 10.2306 25.4975 10.2306C32.2916 10.2306 39.0857 10.2306 45.8798 10.2306C46.058 10.2306 46.2362 10.2306 46.4812 10.2083C45.9466 9.16138 45.4565 8.15897 44.9664 7.15656C44.6991 6.62194 44.4096 6.08732 44.1646 5.53043C44.0086 5.17402 43.7858 5.06264 43.4072 5.06264C39.9544 5.06264 36.5017 5.06264 33.049 5.06264C32.893 5.06264 32.7148 5.06264 32.5589 5.06264C32.0243 5.01809 31.7124 4.68395 31.7347 4.21616C31.7347 3.70382 32.0465 3.45879 32.5143 3.39196C32.6702 3.36969 32.8485 3.39196 33.0044 3.39196C36.6576 3.39196 40.3108 3.39196 43.964 3.39196C44.6546 3.39196 45.0778 3.61472 45.3897 4.26072C46.3698 6.31008 47.4168 8.33717 48.4192 10.3643C48.9315 11.4112 48.5974 11.9458 47.439 11.9458C46.7262 11.9458 46.0134 11.9458 45.2783 11.9458V23.9747C46.0357 23.9747 46.7931 23.997 47.5727 23.9747C48.1519 23.9525 48.486 24.1975 48.731 24.6876C49.8448 26.9151 50.9586 29.1427 52.0947 31.3703V32.0385C51.5601 32.239 51.0254 32.4618 50.4017 32.7068C50.4017 32.8405 50.4017 33.1078 50.4017 33.3974C50.4017 35.0235 50.4017 36.6719 50.4017 38.298C50.4017 38.8995 50.0676 39.2559 49.5553 39.2559C49.0652 39.2559 48.7311 38.8995 48.7088 38.298C48.7088 38.1644 48.7088 38.0307 48.7088 37.9193C48.7088 36.3155 48.7088 34.7339 48.7088 33.1301V32.5286H24.7624V51.307H48.7088C48.7088 51.0397 48.7088 50.817 48.7088 50.5942C48.7088 47.8989 48.7088 45.2035 48.7088 42.4859C48.7088 42.2854 48.7088 42.0849 48.731 41.8844C48.8201 41.4612 49.0875 41.1939 49.5107 41.1716C49.9785 41.1716 50.2681 41.4389 50.3572 41.8844C50.4017 42.0626 50.3795 42.2408 50.3795 42.4413C50.3795 45.1812 50.3795 47.9211 50.3795 50.6388C50.3795 50.8615 50.3795 51.062 50.3795 51.307C51.0255 51.3516 51.6714 51.2179 52.0724 51.8417V52.5099L52.1615 52.4877ZM17.946 35.8477C17.1218 35.8477 16.3644 35.8477 15.6293 35.8477C14.9833 35.8477 14.6715 35.5804 14.6715 35.0458C14.6715 34.5112 15.0056 34.1993 15.6516 34.177C16.5872 34.177 17.5228 34.177 18.4583 34.177C19.4162 34.177 19.6612 34.422 19.6612 35.3799C19.6612 40.4588 19.6612 45.5154 19.6612 50.5942C19.6612 50.817 19.6612 51.0175 19.6612 51.2625H23.114V50.6388C23.114 39.0999 23.114 27.5611 23.114 16.0446C23.114 15.6659 23.0026 15.3986 22.7353 15.1313C19.8394 12.2577 16.9659 9.36186 14.07 6.48829C13.9586 6.37691 13.825 6.28781 13.7136 6.17643C13.6245 6.24325 13.5577 6.28781 13.5131 6.33236C10.5059 9.29503 7.4987 12.28 4.51375 15.2649C4.33554 15.4431 4.22415 15.7773 4.22415 16.0446C4.22415 27.6057 4.22415 39.1445 4.22415 50.7056V51.2848H7.69916C7.69916 51.0397 7.69916 50.817 7.69916 50.5942C7.69916 45.5154 7.69916 40.4588 7.69916 35.3799C7.69916 34.4443 7.94419 34.1993 8.87977 34.1993C9.81535 34.1993 10.751 34.1993 11.6865 34.1993C12.3325 34.1993 12.6889 34.5112 12.6889 35.0458C12.6889 35.5804 12.3325 35.87 11.6865 35.87C10.9292 35.87 10.1941 35.87 9.4144 35.87V51.2625H17.946V35.87V35.8477ZM49.9562 30.7466C49.1543 29.1427 48.3746 27.6057 47.6173 26.0464C47.4391 25.6677 47.2163 25.5786 46.8153 25.5786C39.6648 25.5786 32.5366 25.5786 25.3861 25.5786C25.1856 25.5786 25.0074 25.5786 24.8069 25.5786V30.7466H49.9562ZM43.6522 22.1704C43.3849 22.1704 43.1621 22.1704 42.9394 22.1704C39.0188 22.1704 35.076 22.1704 31.1555 22.1704C30.1976 22.1704 29.9526 21.9254 29.9526 20.9675C29.9526 18.9404 29.9526 16.9356 29.9526 14.9085C29.9526 13.8616 30.1754 13.6611 31.2223 13.6611C35.1429 13.6611 39.0411 13.6611 42.9616 13.6611C43.1844 13.6611 43.3849 13.6611 43.6299 13.6611V11.9681H26.7672C27.9478 12.9705 28.7497 14.0398 27.9924 15.5322C27.3464 16.8242 26.2326 17.2697 24.8069 16.9133V23.8856H43.6299V22.1704H43.6522ZM2.55347 33.3528C2.55347 31.6821 2.57575 30.0115 2.55347 28.3408C2.55347 27.8062 2.39754 27.2493 2.13023 26.7815C1.59561 25.8013 0.348177 25.4004 -0.787885 25.7122C-1.90167 26.0241 -2.61448 27.0042 -2.61448 28.3185C-2.61448 31.6599 -2.61448 35.0012 -2.61448 38.3426C-2.61448 39.9019 -1.47842 41.0379 -0.00822067 41.0379C1.48425 41.0379 2.55346 39.9019 2.57574 38.3203C2.57574 36.6719 2.57574 35.0235 2.57574 33.3528H2.55347ZM13.7136 1.49852C13.3795 1.72128 13.0899 1.87721 12.8894 2.09997C10.6396 4.30527 8.3897 6.53284 6.16213 8.76041C4.46918 10.4311 2.77622 12.124 1.08327 13.7947C0.660029 14.1957 0.637747 14.6412 0.971883 15.0199C1.32829 15.4209 1.86294 15.4654 2.28618 15.0867C2.41983 14.9753 2.53118 14.864 2.64256 14.7526C6.05075 11.3889 9.45896 8.00304 12.8671 4.6394C13.6022 3.9043 13.8918 3.9043 14.6492 4.66168C18.0351 8.04759 21.421 11.4335 24.8069 14.8194C24.9851 14.9976 25.1633 15.1981 25.3861 15.3095C25.943 15.6436 26.6335 15.3095 26.6335 14.6858C26.6335 14.3739 26.4553 14.0175 26.2548 13.7725C25.698 13.1487 25.0742 12.5696 24.4728 11.9681C21.1982 8.69359 17.9015 5.39678 14.6047 2.12225C14.3819 1.89949 14.07 1.74356 13.7359 1.49852H13.7136ZM31.6679 20.4552H43.6299V15.354H31.6679V20.4552ZM2.53121 51.2625V41.929C2.0857 42.1294 1.68472 42.3745 1.26148 42.4859C0.882791 42.5972 0.793707 42.7532 0.793707 43.1319C0.793707 45.6713 0.793707 48.233 0.793707 50.7724C0.793707 50.9284 0.793694 51.0843 0.81597 51.2625H2.50891H2.53121Z" fill="#003125"/>
</g>
</g>
<defs>
<clipPath id="clip0_4715_50080">
<rect width="49.9353" height="52.3132" fill="white"/>
</clipPath>
</defs>
</svg>
