<svg width="50" height="44" viewBox="0 0 50 44" fill="none" xmlns="http://www.w3.org/2000/svg">
<g id="Layer_1" clip-path="url(#clip0_4716_50202)">
<path id="Vector" d="M46.9139 1.75326C46.0038 1.75326 45.141 1.75747 44.2782 1.75326C43.628 1.74905 43.2793 1.44189 43.2751 0.886479C43.2709 0.326858 43.6197 0.00707508 44.2629 0.00567252C45.8399 6.22853e-05 47.4169 6.22853e-05 48.9938 0.00567252C49.7107 0.00847764 49.9942 0.30021 49.997 1.03235C50.0011 2.60602 50.0011 4.18109 49.997 5.75476C49.9956 6.44201 49.6802 6.80247 49.1091 6.79125C48.5645 6.78003 48.2686 6.42659 48.2658 5.76318C48.2616 4.89499 48.2658 4.02681 48.2658 3.13759C48.0087 3.2007 47.9143 3.38023 47.785 3.50926C44.1059 7.21763 40.4268 10.9246 36.7616 14.6456C36.3782 15.0341 35.9863 15.2164 35.4375 15.2052C33.9995 15.1729 32.5615 15.2052 31.1235 15.187C30.74 15.1828 30.551 15.2894 30.4149 15.6835C29.0144 19.7509 26.1661 22.0861 21.9646 22.7019C21.3602 22.7902 20.9545 23.0118 20.5558 23.4242C19.3206 24.7005 18.0507 25.9418 16.8183 27.2209C16.4279 27.6263 16.0236 27.8156 15.4512 27.8044C13.7019 27.7707 11.9513 27.8044 10.2006 27.7833C9.76855 27.7777 9.45871 27.9012 9.15166 28.2153C6.73689 30.6768 4.30546 33.1201 1.87958 35.5689C1.75732 35.6924 1.63922 35.8214 1.50862 35.9364C1.1043 36.2913 0.588841 36.2857 0.24844 35.9294C-0.0780667 35.5872 -0.0780667 35.0879 0.251219 34.6951C0.341529 34.5886 0.442955 34.4932 0.540212 34.3936C3.12587 31.7834 5.71708 29.1789 8.29023 26.5575C8.66259 26.1788 9.05023 26.0245 9.57542 26.0315C11.3775 26.0568 13.1795 26.0344 14.9815 26.047C15.3178 26.0498 15.5692 25.9572 15.8082 25.7104C16.6905 24.7959 17.5936 23.9011 18.487 22.9964C18.8816 22.5981 18.8774 22.5995 18.3466 22.4494C14.7287 21.4213 12.3278 19.1015 11.2163 15.4801C9.44343 9.69875 13.3796 3.4742 19.3109 2.62705C25.0574 1.80656 30.1092 5.69866 30.8331 11.5193C30.8956 12.02 30.8678 12.5319 30.8637 13.0396C30.8609 13.33 30.9734 13.4478 31.2638 13.4464C32.5629 13.4394 33.8634 13.4408 35.1624 13.4464C35.3708 13.4464 35.5237 13.3622 35.6654 13.2192C39.4001 9.44349 43.1348 5.6692 46.8694 1.89492C46.8806 1.8837 46.8819 1.86266 46.9181 1.75887L46.9139 1.75326ZM29.1172 12.6441C28.9908 7.81512 25.37 4.33116 20.9295 4.31293C16.0708 4.29329 12.539 8.08301 12.5946 12.7339C12.6515 17.4465 16.3015 21.0034 20.9115 20.9613C25.577 20.9192 29.0033 17.2473 29.1158 12.6441H29.1172Z" fill="#003125"/>
<path id="Vector_2" d="M49.9991 26.9672C49.9991 32.1455 49.9991 37.3251 49.9991 42.5034C49.9991 43.5244 49.7824 43.7474 48.7931 43.7488C47.3023 43.7488 45.8115 43.7516 44.3221 43.7488C43.5607 43.7474 43.2745 43.4683 43.2745 42.7138C43.2731 32.1819 43.2731 21.6487 43.2745 11.1169C43.2745 10.3623 43.5593 10.086 44.3235 10.0832C45.8657 10.079 47.4079 10.079 48.9515 10.0832C49.7324 10.0846 50.0005 10.3623 50.0005 11.1702C50.0019 16.4368 50.0005 21.702 50.0005 26.9686L49.9991 26.9672ZM45.007 26.9195C45.007 31.7107 45.007 36.5018 45.007 41.293C45.007 41.7614 45.2307 41.9961 45.6781 41.997C46.3186 41.997 46.9619 41.9634 47.5997 42.0083C48.1248 42.0447 48.2763 41.8736 48.2749 41.3364C48.2541 36.7375 48.2638 32.1385 48.2638 27.5409C48.2638 22.5394 48.2638 17.5392 48.2638 12.5377C48.2638 12.0693 48.0401 11.8346 47.5927 11.8336C46.9522 11.8336 46.3089 11.8673 45.6712 11.8224C45.146 11.7859 44.9945 11.9571 44.9959 12.4942C45.0168 17.3022 45.007 22.1116 45.007 26.9195Z" fill="#003125"/>
<path id="Vector_3" d="M34.9531 30.221C34.9531 26.1803 34.9531 22.1381 34.9531 18.0973C34.9531 16.9851 35.1407 16.7999 36.2619 16.7999C37.7 16.7999 39.1394 16.7985 40.5774 16.7999C41.4096 16.8013 41.6792 17.065 41.6792 17.8869C41.6806 26.1452 41.6806 34.402 41.6792 42.6603C41.6792 43.4682 41.411 43.7445 40.6302 43.7473C39.088 43.7515 37.5457 43.7515 36.0035 43.7473C35.2227 43.7459 34.9545 43.4682 34.9545 42.6603C34.9531 38.5143 34.9545 34.3684 34.9545 30.221H34.9531ZM39.9452 30.2659C39.9452 26.5603 39.9383 22.8534 39.9535 19.1478C39.9549 18.699 39.8438 18.5195 39.3728 18.5433C38.6295 18.5798 37.8834 18.5644 37.1386 18.5489C36.8024 18.5419 36.6746 18.6667 36.6829 19.0076C36.6996 19.6541 36.6871 20.3007 36.6871 20.9473C36.6871 27.7483 36.6913 34.5479 36.6774 41.3489C36.6774 41.8412 36.7941 42.0404 37.3109 42.0067C37.9667 41.9646 38.6281 41.9632 39.2839 42.0067C39.8132 42.0432 39.9591 41.8651 39.9549 41.3321C39.9327 37.6434 39.9438 33.9546 39.9424 30.2659H39.9452Z" fill="#003125"/>
<path id="Vector_4" d="M26.6328 33.214C26.6328 30.1171 26.6328 27.0217 26.6328 23.9248C26.6328 22.8855 26.8412 22.6793 27.8902 22.6793C29.3463 22.6793 30.801 22.6779 32.2571 22.6793C33.0893 22.6807 33.3589 22.9444 33.3589 23.7649C33.3602 30.0624 33.3602 36.3613 33.3589 42.6588C33.3589 43.4666 33.0907 43.7444 32.3099 43.7458C30.7676 43.75 29.2254 43.75 27.6832 43.7458C26.901 43.7444 26.6342 43.4681 26.6342 42.6602C26.6314 39.5114 26.6342 36.3627 26.6342 33.214H26.6328ZM31.6235 33.2069C31.6235 30.4635 31.6179 27.7187 31.6305 24.9753C31.6318 24.577 31.5304 24.4059 31.1053 24.4241C30.3619 24.4536 29.6158 24.448 28.8725 24.4255C28.489 24.4143 28.3612 24.5475 28.3612 24.9375C28.3709 30.4607 28.3709 35.984 28.3612 41.5059C28.3612 41.9126 28.5196 42.0136 28.8864 42.0024C29.5964 41.9827 30.3078 41.9701 31.015 42.0066C31.4929 42.0304 31.6374 41.8733 31.6346 41.3867C31.6138 38.6601 31.6249 35.9335 31.6249 33.2069H31.6235Z" fill="#003125"/>
<path id="Vector_5" d="M25.0364 36.6C25.0364 38.6112 25.0378 40.6239 25.0364 42.6352C25.0364 43.4753 24.7738 43.746 23.9596 43.7474C22.4174 43.7502 20.8751 43.7516 19.3329 43.7474C18.6049 43.7446 18.3117 43.4599 18.3117 42.7389C18.3076 38.628 18.3076 34.5171 18.3117 30.4063C18.3117 29.6867 18.6049 29.402 19.3343 29.4006C20.8932 29.3964 22.4535 29.3964 24.0124 29.4006C24.7585 29.4034 25.0336 29.6895 25.035 30.461C25.0378 32.5073 25.035 34.555 25.035 36.6014L25.0364 36.6ZM20.0443 36.5747C20.0443 38.2171 20.0512 39.8581 20.0387 41.5005C20.036 41.8483 20.129 42.0124 20.5056 42.0012C21.2836 41.9802 22.0631 41.9802 22.8411 42.0012C23.2218 42.011 23.3052 41.8399 23.3038 41.4963C23.2955 38.2129 23.2941 34.9281 23.3066 31.6447C23.308 31.2436 23.1565 31.1328 22.7856 31.144C22.077 31.165 21.3656 31.1749 20.6584 31.1412C20.1902 31.1188 20.0234 31.2576 20.0332 31.7541C20.0624 33.36 20.0443 34.9674 20.0443 36.5747Z" fill="#003125"/>
<path id="Vector_6" d="M16.7203 38.2533C16.7203 39.7231 16.7231 41.1916 16.7203 42.6615C16.7189 43.468 16.4522 43.7457 15.6699 43.7471C14.1277 43.7513 12.5855 43.7513 11.0433 43.7471C10.261 43.7457 9.99566 43.468 9.99427 42.6601C9.99149 39.7217 9.99149 36.7834 9.99427 33.8436C9.99427 33.0357 10.261 32.7594 11.0433 32.758C12.5855 32.7538 14.1277 32.7538 15.6699 32.758C16.4522 32.7594 16.7175 33.0371 16.7189 33.8436C16.7217 35.3135 16.7189 36.782 16.7189 38.2519L16.7203 38.2533ZM14.985 38.2519C14.985 37.1691 14.9752 36.0863 14.9905 35.0049C14.9947 34.6571 14.8988 34.4944 14.5223 34.5042C13.7442 34.5253 12.9662 34.5253 12.1881 34.5042C11.8088 34.4944 11.7227 34.6627 11.7241 35.0077C11.7338 37.1719 11.7366 39.3374 11.7213 41.503C11.7185 41.9055 11.8713 42.0135 12.2423 42.0037C12.9676 41.9827 13.6956 41.9785 14.4209 42.0051C14.8405 42.0205 15.0044 41.8943 14.9933 41.4469C14.9655 40.3823 14.985 39.3178 14.985 38.2519Z" fill="#003125"/>
<path id="Vector_7" d="M8.39826 40.3514C8.39826 41.1383 8.40243 41.9251 8.39826 42.712C8.39409 43.4469 8.11344 43.7428 7.40207 43.7456C5.82511 43.7512 4.24815 43.7512 2.67258 43.7456C1.95983 43.7428 1.67778 43.4497 1.675 42.7134C1.67083 41.1397 1.67083 39.5646 1.675 37.9909C1.67778 37.2364 1.95983 36.9601 2.7226 36.9573C4.26483 36.953 5.80705 36.953 7.34927 36.9573C8.1315 36.9587 8.39687 37.2364 8.39965 38.0414C8.40243 38.8114 8.39965 39.58 8.39965 40.35L8.39826 40.3514ZM6.66291 40.3613C6.66291 39.9433 6.65458 39.5239 6.66569 39.106C6.67403 38.8128 6.54482 38.7034 6.26138 38.7062C5.44998 38.7147 4.63857 38.7175 3.82717 38.7062C3.51039 38.702 3.40062 38.8325 3.40479 39.1424C3.41591 39.9615 3.41452 40.7806 3.40479 41.5997C3.40201 41.8929 3.52567 42.0023 3.80911 41.9981C4.62051 41.9896 5.43191 41.9868 6.24332 41.9981C6.55871 42.0023 6.67681 41.8732 6.66569 41.5619C6.6518 41.1621 6.66291 40.7596 6.66152 40.3585L6.66291 40.3613Z" fill="#003125"/>
<path id="Vector_8" d="M24.3373 9.17951H21.6655C22.1351 9.55539 22.4755 10.0954 22.5727 10.8471H24.3387V11.6648H22.5894C22.4269 13.3325 21.1153 14.3956 19.0423 14.4601C20.3053 15.7842 21.6821 17.4518 23.0424 19.1363H21.4876C20.2247 17.5991 19.0423 16.1769 17.5195 14.5429V13.5288H18.4101C20.1594 13.5288 21.0986 12.7925 21.2125 11.6648H17.5195V10.8471H21.1639C20.9374 9.89902 20.0788 9.42496 18.6699 9.42496H17.5195V8.36182H24.3373V9.17951Z" fill="#231F20"/>
</g>
<defs>
<clipPath id="clip0_4716_50202">
<rect width="50" height="43.75" fill="white"/>
</clipPath>
</defs>
</svg>
