<svg width="68" height="53" viewBox="0 0 68 53" fill="none" xmlns="http://www.w3.org/2000/svg">
<g id="Group 65">
<g id="Group">
<path id="Vector" d="M8.81839 49.4627C7.3092 49.4627 5.82748 49.4627 4.34573 49.4627C3.68718 49.4627 3.02861 49.4627 2.39749 49.3549C0.778546 49.0313 -0.209287 47.8019 0.0376706 46.5078C0.257189 45.2784 1.62917 44.3509 3.24812 44.3509C4.29083 44.3509 5.33354 44.3509 6.37625 44.3509C7.14456 44.3509 7.55619 44.0274 7.61107 43.445C7.77571 41.9999 8.76352 41.1803 10.5471 40.943C10.602 40.943 10.6569 40.9215 10.7666 40.8783C10.1904 40.1018 9.77879 39.3254 9.77879 38.4195C9.77879 36.7371 10.7666 35.5077 12.5502 34.6449C12.7697 34.5371 13.0441 34.3645 13.099 34.1704C13.9222 31.9704 15.5137 30.892 18.4223 30.6763V27.3115H6.56835C6.32139 25.6292 6.81532 24.1841 8.29706 22.9762C9.2849 22.1566 10.355 21.3801 11.5075 20.4958H6.59577C6.34881 18.835 6.81529 17.3899 8.2696 16.2036C9.28487 15.3624 10.355 14.5859 11.5624 13.68H6.65066C6.37627 11.5447 6.43113 10.7036 8.35191 9.60354C12.0563 7.46823 14.91 4.72899 16.9131 1.4721C17.4345 0.652487 18.1479 0.0701285 19.3827 0.0054221C20.7273 -0.0592843 21.6053 0.458374 22.1816 1.38583C23.3066 3.21918 24.6511 4.94469 26.4622 6.43294C27.8616 7.57608 29.3708 8.67609 30.9349 9.66826C32.0599 10.38 32.7459 11.1781 32.6361 12.3428C32.6087 12.7526 32.6361 13.184 32.6361 13.6585H27.7244C29.5903 15.4056 32.2794 16.5703 32.5812 19.1154C35.627 16.6997 39.304 16.3977 42.5419 18.4036C42.8986 17.9291 43.2553 17.4762 43.5846 17.0016C43.6669 16.8722 43.6944 16.6781 43.6669 16.5271C42.926 14.0251 44.6547 11.8251 47.8103 11.2212C48.0573 11.1781 48.3317 11.0055 48.4689 10.833C49.5665 9.38786 51.1305 8.58982 53.2983 8.58982C55.4386 8.58982 56.9752 9.38786 58.0728 10.833C58.21 11.0055 58.5118 11.1781 58.7862 11.2428C61.832 11.8251 63.6156 14.0899 62.9022 16.484C62.8473 16.6781 62.9022 16.9369 63.0394 17.0879C64.2467 18.4252 64.4937 19.8487 63.6979 21.3801C63.6156 21.5311 63.6979 21.7899 63.8077 21.9193C65.8657 23.839 65.701 26.3194 63.3686 28.0449C63.1766 28.1743 63.0394 28.4331 63.0668 28.6272C63.1766 30.3959 62.3808 31.8194 60.46 32.7469C58.5393 33.6528 56.591 33.5881 54.6977 32.6822C54.6428 32.6606 54.5879 32.639 54.5056 32.6175C54.5056 32.6175 54.4507 32.6175 54.4233 32.6175V38.4626C56.4264 38.592 57.7984 39.3469 58.5118 40.8136C58.5667 40.943 58.9234 41.0509 59.1429 41.0509C60.7893 41.0509 62.4357 41.0509 64.1095 41.0509C66.0029 41.0509 67.4297 42.1724 67.4297 43.6391C67.4297 45.0627 66.0029 46.1842 64.137 46.1842C60.021 46.1842 55.905 46.1842 51.7891 46.1842C51.597 46.1842 51.4324 46.1842 51.2403 46.1842C50.5543 46.2274 50.0878 46.5725 50.0604 47.0254C50.0604 47.4999 50.5269 47.8666 51.2129 47.8882C52.2556 47.8882 53.2983 47.8882 54.341 47.8882C56.2343 47.8882 57.6612 49.0098 57.6612 50.4765C57.6612 51.9 56.2069 53 54.341 53C40.2644 53 26.1878 53 12.1112 53C9.80625 53 8.48915 51.6196 8.90074 49.5921L8.81839 49.4627ZM47.92 47.7588C47.2615 45.5156 49.4293 44.2646 51.597 44.3078C55.5758 44.4156 59.5545 44.3293 63.5333 44.3293C64.6034 44.3293 65.1797 44.0274 65.1523 43.4666C65.1523 42.9058 64.6034 42.6254 63.5059 42.6254C54.4233 42.6254 45.3682 42.6254 36.2856 42.6254C27.9714 42.6254 19.6297 42.6254 11.3154 42.6254C10.1904 42.6254 9.86111 42.8627 9.77879 43.7254C9.64159 44.9764 8.26959 46.0117 6.67809 46.0333C5.5805 46.0333 4.51038 46.0333 3.41279 46.0333C2.67192 46.0333 2.17797 46.3999 2.17797 46.896C2.17797 47.3921 2.67192 47.7156 3.41279 47.7372C3.60487 47.7372 3.7695 47.7372 3.96158 47.7372C8.54402 47.7372 13.099 47.7372 17.6815 47.7372H18.4223V49.4411C16.4466 49.4411 14.4984 49.4411 12.5502 49.4411C11.4252 49.4411 10.8489 49.7431 10.8764 50.3255C10.8764 50.8862 11.4526 51.1667 12.5502 51.1667C26.2701 51.1667 40.0174 51.1667 53.7373 51.1667C53.9294 51.1667 54.1763 51.2098 54.341 51.1667C54.6703 51.0372 55.0819 50.9078 55.2465 50.6921C55.713 50.1098 55.1093 49.4843 54.1215 49.4843C51.5421 49.4843 48.9628 49.4843 46.3834 49.4843C46.1365 49.4843 45.917 49.4843 45.67 49.4843V47.7803H47.92V47.7588ZM22.8401 18.7056H30.1666C30.1666 18.7056 30.2488 18.6193 30.3037 18.5762C29.8921 18.1232 29.5629 17.6056 29.0964 17.2173C28.0263 16.3115 26.8189 15.4703 25.7762 14.5644C25.0079 13.8957 24.2121 13.4212 23.0048 13.5938C22.9773 13.5938 22.9224 13.5722 22.895 13.5506V11.8898H30.6056C30.2763 11.5663 30.0842 11.3291 29.8373 11.1565C25.6938 8.76236 22.4834 5.7643 20.2333 2.11917C20.1236 1.94662 19.8217 1.70936 19.6297 1.70936C19.3827 1.70936 19.0809 1.94662 18.9437 2.14074C16.6936 5.74273 13.5106 8.74079 9.36721 11.1349C9.09282 11.3075 8.90071 11.5663 8.65375 11.782L8.76354 11.9114H16.2546V13.6153C15.7881 13.6153 15.4039 13.5938 14.9923 13.6153C14.7728 13.6153 14.4984 13.7016 14.3612 13.831C12.852 14.9957 11.3429 16.1389 9.916 17.3467C9.47696 17.7134 9.20257 18.2095 8.84585 18.6409C8.90073 18.684 8.9556 18.7272 9.01048 18.7703H16.3095V20.4527C15.843 20.4527 15.4314 20.4527 14.9923 20.4527C14.8003 20.4527 14.5533 20.5389 14.4161 20.6468C12.8795 21.8331 11.3429 23.0193 9.86111 24.2488C9.44951 24.5939 9.20254 25.0684 8.81839 25.5645H29.3159C29.7824 24.7664 29.4257 24.2056 28.6574 23.6664C27.6421 22.9546 26.6817 22.1997 25.7762 21.4017C25.0353 20.7546 24.2395 20.2585 23.0596 20.4527C23.0047 20.4527 22.9499 20.4095 22.895 20.388V18.7487L22.8401 18.7056ZM58.4295 22.6742C57.1398 23.9468 55.8776 25.1762 54.6428 26.4272C54.4782 26.5998 54.341 26.837 54.3135 27.0311C54.2861 27.6782 54.2586 28.3468 54.3135 28.9939C54.3958 30.0723 55.027 30.892 56.3441 31.3233C57.6063 31.7331 58.8136 31.5606 59.8015 30.8057C60.8167 30.0508 61.0912 29.1233 60.5972 28.088C60.4875 27.8508 60.3777 27.5919 60.2679 27.3115C61.832 26.837 62.9845 26.1037 62.9845 24.7233C62.9845 23.2997 61.7497 22.588 60.3228 22.0487C62.5455 19.4389 62.5454 19.2879 60.021 17.1311C60.1308 16.9585 60.268 16.7644 60.3777 16.5703C61.6125 14.6938 59.9661 12.6663 57.277 12.7957C56.6185 12.8389 56.4813 12.6232 56.3441 12.2134C55.9325 10.9624 54.6702 10.1859 53.1611 10.2075C51.6793 10.2075 50.4445 11.0055 50.0604 12.2134C49.9232 12.6663 49.7037 12.8173 49.0726 12.7957C46.5207 12.6663 44.8743 14.6507 45.9718 16.484C46.109 16.7213 46.2737 16.9585 46.4109 17.1742C46.0542 17.433 45.6974 17.6271 45.3956 17.8644C44.545 18.5546 44.1883 19.8056 44.6822 20.4742C46.795 23.4076 47.1518 26.5135 46.1091 29.7488C45.9719 30.1371 46.109 30.3959 46.3834 30.6547C47.2615 31.4528 48.6335 31.7547 49.8957 31.4096C51.1854 31.0645 52.0909 30.1371 52.0909 29.0155C52.1183 27.2253 52.0909 25.4135 52.0909 23.6233C52.0909 23.4292 51.9537 23.2135 51.8165 23.0625C50.911 22.135 49.9506 21.2291 49.0177 20.3017C48.6609 19.9566 48.3317 19.6115 47.9749 19.2664C48.5786 18.8781 49.1274 18.5546 49.6762 18.2095C50.472 18.986 51.2128 19.6978 52.0909 20.5605V15.384H54.2861V23.9684C55.1367 23.1272 55.905 22.3939 56.6733 21.6389C57.2496 22.0056 57.771 22.3291 58.3746 22.7174L58.4295 22.6742ZM26.078 36.09C25.9957 35.9606 25.8311 35.7018 25.6664 35.4646C25.0353 34.5802 24.0475 34.041 22.7853 34.1489C21.9072 34.2351 21.4956 33.9979 21.0565 33.4802C20.2608 32.5312 18.7516 32.1861 17.407 32.5528C16.0625 32.9194 15.1295 33.9547 15.2667 35.0547C15.3216 35.6371 15.0747 35.7881 14.4161 35.9175C12.5777 36.2842 11.5075 37.7293 12.166 39.0881C12.4679 39.7352 13.2088 40.2528 13.785 40.8352C13.8673 40.9215 14.1143 40.9215 14.2789 40.9215C19.3004 40.9215 24.3219 40.9215 29.3434 40.9215C29.5354 40.9215 29.7824 40.8783 29.8921 40.792C30.2763 40.4469 30.6879 40.1018 30.9897 39.7136C32.1971 38.2469 31.1818 36.241 28.9866 35.9175C28.1086 35.7881 27.1482 36.0038 26.078 36.09ZM39.1119 33.9547C39.4412 33.8685 39.6881 33.8253 39.9351 33.739C41.362 33.1998 42.3498 32.3155 43.0632 31.2371C44.4352 29.188 44.7919 26.988 44.3529 24.7233C44.0236 23.0409 43.3102 21.488 41.8285 20.2154C40.4839 19.0723 38.8649 18.4468 36.8618 18.8781C35.2703 19.2232 34.1453 20.0644 33.3221 21.1429C31.6483 23.3213 31.2367 25.6939 31.7032 28.1743C32.005 29.8135 32.7459 31.3233 34.1727 32.5959C34.9136 33.243 35.7642 33.739 36.9167 33.9547C36.9167 33.4587 36.8893 33.0273 36.9167 32.5743C36.9716 32.0567 36.7795 31.6253 36.3954 31.1939C35.5996 30.3312 34.8862 29.4253 34.1178 28.541C33.6514 28.0017 33.2124 27.4625 32.7184 26.8802C33.3495 26.5566 33.9258 26.2547 34.5295 25.9311C35.2978 26.837 36.0386 27.6998 36.7795 28.5625C36.8344 28.5625 36.8618 28.541 36.9167 28.5194V22.1997H39.1119V24.788C39.9625 23.9468 40.7034 23.235 41.4717 22.4801C42.048 22.8468 42.5967 23.1919 43.173 23.5586C41.8833 24.8311 40.6211 26.0605 39.3863 27.29C39.2491 27.441 39.057 27.6135 39.057 27.7861C39.057 29.8351 39.057 31.8626 39.057 33.9763L39.1119 33.9547ZM20.645 27.2684C20.645 28.39 20.645 29.4684 20.645 30.5469C20.645 30.892 20.7821 31.0645 21.1663 31.2371C21.6876 31.4743 22.0992 31.841 22.5932 32.1214C22.7852 32.2292 23.0047 32.3371 23.2243 32.3586C24.5962 32.4665 25.8036 32.8763 26.7366 33.6959C27.1207 34.0194 27.4774 34.1057 27.9988 34.0841C31.2916 33.9979 33.7886 35.9391 33.6514 38.5058C33.5965 39.3038 33.1575 40.0803 32.8831 40.8567H36.9167V35.7665C31.6208 34.4292 30.0019 31.0861 29.2885 27.2468H20.645V27.2684ZM45.0114 32.0135C43.6669 33.8469 41.8833 35.2704 39.1668 35.7234V40.7058C39.6607 40.2097 40.1272 39.6058 40.7583 39.1313C41.0876 38.8724 41.3345 38.6352 41.4443 38.2685C41.9382 36.6077 43.2827 35.5077 45.3682 35.0763C47.5085 34.6449 49.3195 35.1626 50.8287 36.4136C51.158 36.694 51.6245 36.8881 52.1184 37.1901V32.4665C48.7158 33.5881 47.9201 33.5449 45.0114 32.0135ZM52.3927 40.5548C52.2555 40.2097 52.1458 39.9293 52.0635 39.6705C51.8165 39.0018 51.2677 38.5489 50.3897 38.4195C49.9232 38.3548 49.6762 38.1607 49.4292 37.8587C48.7158 36.9528 47.3987 36.4999 46.1914 36.694C44.4901 36.9744 43.3925 38.0312 43.5023 39.4116C43.5297 39.843 43.3651 40.0371 42.8711 40.1665C42.4321 40.296 42.0754 40.5548 41.6912 40.7489L41.801 40.8783H56.152C55.0269 39.7136 53.7648 40.0587 52.4202 40.5332L52.3927 40.5548ZM30.1666 22.3076C30.4958 21.7252 30.8525 21.0997 31.2092 20.4742H27.8616C28.6025 21.0782 29.3708 21.6821 30.1391 22.3076H30.1666Z" fill="#003125"/>
<path id="Vector_2" d="M18.5 45.9906V44.3945C19.9543 44.3945 21.436 44.3082 22.8629 44.4161C24.0428 44.5023 24.866 45.3435 24.9483 46.3141C25.0032 46.7455 25.2502 46.918 25.7715 46.918C26.924 46.918 28.0765 46.918 29.2564 46.918V48.6004C27.857 48.6004 26.4575 48.6436 25.0581 48.6004C23.9056 48.5357 22.9452 47.6945 22.808 46.7886C22.6983 46.0984 22.6708 46.0553 21.7653 46.0553C20.7226 46.0553 19.6799 46.0553 18.6372 46.0553C18.6097 46.0553 18.5549 46.0337 18.5 46.0121V45.9906Z" fill="#003125"/>
</g>
</g>
</svg>
