<svg width="50" height="53" viewBox="0 0 50 53" fill="none" xmlns="http://www.w3.org/2000/svg">
<g id="Layer_1" clip-path="url(#clip0_4716_50215)">
<path id="Vector" d="M-6 41.9003C-5.45802 41.3009 -4.70396 41.039 -4.02475 40.6693C2.54 37.0995 9.10753 33.5339 15.6848 29.9866C17.4784 29.0188 19.4606 29.7877 20.1107 31.6461C20.2756 32.1195 20.3131 32.618 20.3145 33.1138C20.3186 40.5447 20.3172 47.977 20.3172 55.4078C20.3172 55.4695 20.3172 55.5325 20.3145 55.5941C20.2756 56.531 19.8903 57.0128 19.1917 56.9988C18.5222 56.9848 18.1826 56.517 18.1826 55.5927C18.1826 48.2024 18.1826 40.8122 18.1826 33.4219C18.1826 31.6923 17.6503 31.3632 16.1339 32.1839C9.34455 35.8573 2.56079 39.5391 -4.22851 43.2126C-5.0505 43.6579 -5.38317 43.5851 -6 42.8933V41.8989V41.9003Z" fill="#003125"/>
<path id="Vector_2" d="M-6 28.3574C-5.83089 28.0269 -5.53703 27.8462 -5.22515 27.6768C-1.00158 25.387 3.21921 23.0959 7.44139 20.8047C10.7251 19.0233 14.0034 17.2307 17.2996 15.4703C17.9497 15.123 18.1909 14.6496 18.1895 13.9298C18.1756 7.86438 18.1812 1.80037 18.1812 -4.26506C18.1812 -4.34768 18.1812 -4.43031 18.1812 -4.51294C18.184 -5.52548 18.5277 -6.01004 19.2347 -5.99883C19.9374 -5.98763 20.3131 -5.48906 20.3145 -4.48913C20.32 1.67993 20.3158 7.84758 20.3172 14.0166C20.3172 15.5389 19.699 16.6341 18.3281 17.3708C11.8368 20.8579 5.36495 24.3857 -1.11248 27.8981C-2.15901 28.4653 -3.20277 29.0394 -4.25208 29.601C-5.05604 30.0296 -5.42891 29.9441 -6 29.2271L-6 28.3574Z" fill="#003125"/>
<path id="Vector_3" d="M44.3959 37.7129C40.7268 37.7129 37.059 37.7143 33.3899 37.7129C31.301 37.7115 30.0202 36.4273 30.0133 34.3042C30.0036 30.9907 30.0091 27.6786 30.0119 24.3651C30.0119 22.9086 30.6371 21.8554 31.9317 21.158C39.6303 17.0028 47.3179 12.8294 55.0068 8.65602C55.4891 8.39414 55.9577 8.24709 56.44 8.61401C57.0541 9.08177 57.0111 9.95146 56.3111 10.3842C55.5432 10.859 54.7351 11.2665 53.9408 11.6964C46.9893 15.4623 40.042 19.2352 33.0808 22.9828C32.4155 23.3413 32.1424 23.7993 32.148 24.5569C32.1743 27.7458 32.1577 30.9347 32.159 34.1235C32.159 35.2761 32.421 35.5352 33.5785 35.5352C40.8335 35.5352 48.0886 35.5352 55.3436 35.5366C55.6499 35.5366 55.9563 35.51 56.2571 35.6136C56.7727 35.7915 57.0194 36.1514 56.9917 36.6948C56.964 37.248 56.6493 37.5687 56.1337 37.6821C55.9175 37.7297 55.6846 37.7115 55.46 37.7115C51.7715 37.7129 48.0816 37.7115 44.3931 37.7115L44.3959 37.7129Z" fill="#003125"/>
<path id="Vector_4" d="M32.1616 0.359293C32.1616 2.03705 32.1589 3.71341 32.163 5.39117C32.1658 6.65159 32.8062 7.04652 33.8915 6.45973C40.7169 2.7625 47.5422 -0.936139 54.3676 -4.63337C54.6199 -4.77062 54.8721 -4.90926 55.13 -5.03671C55.8272 -5.38122 56.4301 -5.24397 56.7323 -4.67819C57.0345 -4.1124 56.8197 -3.5144 56.1391 -3.13907C54.5201 -2.24698 52.8927 -1.37028 51.2682 -0.48939C45.7791 2.4852 40.2872 5.45279 34.8022 8.43439C32.4888 9.692 30.0547 8.32095 30.0228 5.66846C29.9812 2.23172 30.0076 -1.20643 30.0159 -4.64317C30.0173 -5.46525 30.3804 -5.9288 31.0014 -5.98902C31.6696 -6.05344 32.1492 -5.60249 32.1547 -4.85605C32.1658 -3.11667 32.1589 -1.37729 32.1589 0.362094L32.1616 0.359293Z" fill="#003125"/>
<path id="Vector_5" d="M44.5998 49.7665C40.9529 49.7665 37.3073 49.7665 33.6604 49.7665C32.4309 49.7665 32.162 50.0438 32.162 51.3098C32.162 52.7999 32.1661 54.29 32.1592 55.7801C32.1564 56.5098 31.8002 56.9509 31.2056 56.9957C30.5901 57.0433 30.0717 56.6596 30.0495 55.9734C29.9871 54.1136 29.8887 52.2425 30.0842 50.3925C30.2699 48.6335 31.523 47.6042 33.2778 47.593C35.6745 47.579 38.0711 47.5888 40.4677 47.5888C45.4246 47.5888 50.3828 47.5888 55.3396 47.5888C55.6459 47.5888 55.9523 47.565 56.2531 47.6672C56.8006 47.8521 57.0362 48.24 56.9933 48.8058C56.9517 49.3646 56.6024 49.6503 56.0895 49.7455C55.8913 49.7819 55.6806 49.7637 55.4768 49.7637C51.8507 49.7637 48.2246 49.7637 44.5998 49.7637V49.7665Z" fill="#003125"/>
<path id="Vector_6" d="M39.397 12.132C39.3734 12.5298 39.1683 12.8715 38.7802 13.0829C37.0724 14.0143 35.3675 14.9512 33.6473 15.8587C33.0111 16.1948 32.4012 15.9917 32.1281 15.4315C31.8592 14.8811 32.0449 14.3042 32.6479 13.9708C34.3334 13.0409 36.0218 12.1166 37.7253 11.2203C38.5334 10.796 39.379 11.2567 39.3984 12.132H39.397Z" fill="#003125"/>
<path id="Vector_7" d="M49.8697 6.40806C49.8822 6.87302 49.6563 7.19652 49.2654 7.40939C47.5895 8.3211 45.9165 9.2398 44.2309 10.1347C43.5628 10.489 42.9266 10.3112 42.6466 9.74817C42.3666 9.18659 42.5675 8.60399 43.2149 8.24827C44.8866 7.32817 46.561 6.41086 48.2493 5.52297C49.0727 5.09022 49.8725 5.55098 49.8711 6.40946L49.8697 6.40806Z" fill="#003125"/>
<path id="Vector_8" d="M9.86336 28.1363C9.82593 28.4976 9.68732 28.8408 9.33246 29.034C7.56791 30.0003 5.80613 30.9709 4.02771 31.9078C3.47464 32.1991 2.87029 31.9666 2.59999 31.4526C2.32415 30.9274 2.46831 30.3491 3.05326 30.0241C4.79147 29.055 6.53939 28.0985 8.30672 27.184C9.03999 26.8045 9.85365 27.3296 9.86474 28.1363H9.86336Z" fill="#003125"/>
<path id="Vector_9" d="M26.2486 3.22624C26.2486 4.15755 26.2569 5.09026 26.2458 6.02157C26.2361 6.83104 25.8009 7.33521 25.1535 7.32541C24.5034 7.3142 24.0973 6.81704 24.0945 5.99356C24.0876 4.17156 24.089 2.34955 24.0945 0.527542C24.0973 -0.325343 24.527 -0.861722 25.1799 -0.851919C25.8189 -0.842115 26.2417 -0.293132 26.2486 0.555551C26.2555 1.44625 26.25 2.33554 26.2486 3.22624Z" fill="#003125"/>
<path id="Vector_10" d="M26.2501 15.308C26.2501 16.2393 26.2598 17.1721 26.2474 18.1034C26.2363 18.8764 25.8149 19.3666 25.187 19.3792C24.5369 19.3918 24.1002 18.8862 24.0961 18.0782C24.0878 16.2141 24.0878 14.3515 24.0961 12.4875C24.1002 11.7214 24.5299 11.2145 25.1468 11.2005C25.7719 11.1865 26.2349 11.7256 26.2446 12.5127C26.2571 13.444 26.2474 14.3767 26.2474 15.308H26.2501Z" fill="#003125"/>
<path id="Vector_11" d="M24.0935 27.3395C24.0935 26.4081 24.0852 25.4768 24.0963 24.5455C24.1046 23.7921 24.5413 23.2697 25.147 23.2557C25.7708 23.2403 26.2407 23.7795 26.2448 24.5665C26.2545 26.4292 26.2559 28.2932 26.2448 30.1558C26.2407 30.9289 25.8151 31.419 25.1872 31.433C24.5385 31.4484 24.1019 30.9401 24.0949 30.1348C24.0852 29.2035 24.0922 28.2722 24.0935 27.3409V27.3395Z" fill="#003125"/>
<path id="Vector_12" d="M26.2491 39.438C26.2491 40.3483 26.2574 41.26 26.2463 42.1704C26.2366 42.9798 25.8083 43.4868 25.1624 43.4854C24.5178 43.4826 24.0978 42.9756 24.095 42.1606C24.0881 40.3189 24.0881 38.4759 24.095 36.6343C24.0978 35.843 24.5497 35.3025 25.1735 35.3067C25.7958 35.3109 26.238 35.85 26.2477 36.6455C26.2574 37.5768 26.2505 38.5081 26.2505 39.4394L26.2491 39.438Z" fill="#003125"/>
<path id="Vector_13" d="M13.0217 25.218C13.012 24.7685 13.2629 24.4758 13.6205 24.2797C15.3283 23.3442 17.036 22.4087 18.7576 21.4998C19.3578 21.1833 19.958 21.3905 20.2324 21.9311C20.5027 22.4619 20.3586 23.0459 19.7847 23.3652C18.0479 24.3329 16.3041 25.2894 14.5368 26.1983C13.755 26.6003 12.9912 26.0625 13.0203 25.2166L13.0217 25.218Z" fill="#003125"/>
<path id="Vector_14" d="M33.9169 41.61C34.858 41.61 35.7992 41.6044 36.7404 41.6114C37.4765 41.617 37.8951 41.9587 37.9353 42.5694C37.9782 43.2206 37.597 43.6827 36.8624 43.7387C36.1097 43.7962 35.3501 43.7682 34.5933 43.771C33.4885 43.7738 32.3838 43.7752 31.279 43.7682C30.841 43.7653 30.4127 43.7037 30.1188 43.32C29.8776 43.0049 29.7986 42.6534 29.958 42.2725C30.1355 41.8495 30.4543 41.6184 30.9089 41.6156C31.9111 41.6086 32.9147 41.6128 33.9169 41.6128V41.6086V41.61Z" fill="#003125"/>
<path id="Vector_15" d="M45.8408 41.6103C46.782 41.6103 47.7232 41.6047 48.6644 41.6103C49.4046 41.6159 49.8218 41.952 49.8662 42.5612C49.9147 43.2334 49.5113 43.7096 48.7393 43.7432C47.6359 43.7922 46.5298 43.767 45.425 43.7684C44.6072 43.7684 43.7866 43.7978 42.9701 43.7474C42.0664 43.6913 41.5743 42.9421 41.9111 42.2209C42.1191 41.7755 42.4836 41.6047 42.9549 41.6075C43.9169 41.6131 44.8789 41.6089 45.8395 41.6075L45.8408 41.6103Z" fill="#003125"/>
<path id="Vector_16" d="M24.0982 49.6239C24.0982 49.2304 24.0761 48.8355 24.1038 48.4447C24.1454 47.8313 24.625 47.3594 25.1656 47.3594C25.684 47.3594 26.1913 47.7949 26.2232 48.3803C26.2676 49.2052 26.2703 50.0371 26.2204 50.8605C26.1816 51.4866 25.6632 51.9011 25.1018 51.8675C24.5266 51.8325 24.1301 51.3969 24.0996 50.7415C24.083 50.3704 24.0969 49.9965 24.0969 49.6239C24.0969 49.6239 24.0996 49.6239 24.101 49.6239H24.0982Z" fill="#003125"/>
</g>
<defs>
<clipPath id="clip0_4716_50215">
<rect width="63" height="63" fill="white" transform="translate(-6 -6)"/>
</clipPath>
</defs>
</svg>
