<svg width="219" height="186" viewBox="0 0 219 186" fill="none" xmlns="http://www.w3.org/2000/svg">
<g id="Group">
<path id="Vector" opacity="0.504511" fill-rule="evenodd" clipRule="evenodd" d="M201.816 149.279C204.613 170.199 136.789 183.843 78.4123 174.321C20.0352 164.799 -6.7454 127.612 21.1112 107.798C48.9677 87.9836 199.019 128.36 201.816 149.279Z" fill="#F2F2F2"/>
<path id="Vector_2" fill-rule="evenodd" clipRule="evenodd" d="M119.358 52.6086C117.862 51.8668 115.867 52.7272 116.699 54.6882C117.591 56.7881 120.885 56.8141 122.746 56.7724C122.56 56.7627 121.96 54.837 121.755 54.546C121.149 53.6876 120.277 53.0655 119.358 52.6086ZM136.594 90.2586C136.971 90.5813 136.625 90.2889 136.594 90.2586V90.2586ZM117.917 62.1068C117.041 62.776 116.999 63.9575 117.715 64.7573C118.566 65.7094 120.121 65.6747 121.282 65.5819C121.807 65.5399 124.61 65.3154 123.946 64.8567C123.997 64.876 124.103 64.9228 124.218 64.9865C124.279 65.2112 124.344 65.435 124.411 65.6578C124.394 65.6675 124.38 65.6778 124.363 65.6874C124.382 65.6791 124.395 65.67 124.412 65.6615C125.086 67.8889 126.046 70.0098 127.302 71.9939C126.832 71.8088 126.345 71.6687 125.852 71.6063C124.389 71.4213 121.312 72.5579 122.948 74.5051C124.517 76.3719 126.959 74.3692 128.739 74.093C130.466 76.503 132.37 78.8126 134.365 81.045C134.243 81.0833 134.136 81.1631 134.074 81.2873C133.274 80.8812 132.44 80.3003 131.699 80.143C130.63 79.9164 128.438 79.779 127.63 80.7358C126.636 81.9123 127.701 82.868 128.875 83.0936C130.578 83.4209 132.806 82.5891 134.444 82.0271C134.632 82.0602 134.836 82.0054 134.958 81.8556C134.995 81.8437 135.031 81.832 135.066 81.8207C137.087 84.0422 139.184 86.1905 141.269 88.2916C141.247 88.2904 141.225 88.2891 141.202 88.2878C140.658 87.9311 140.075 87.6384 139.442 87.4851C137.979 87.1286 136.258 87.1268 135.071 88.1853C133.889 89.2392 133.47 91.0824 134.693 92.2659C137.142 94.6348 140.75 89.2335 141.985 89.008C144.104 91.1209 146.344 93.0949 148.62 95.0291C148.361 94.9504 148.096 94.8925 147.822 94.8665C145.591 94.6529 140.353 97.3887 143.092 100.08C145.478 102.426 148.24 97.9114 150.164 96.3325C152.308 98.1352 154.464 99.9256 156.56 101.786C155.417 101.482 154.312 101.438 153.087 101.808C151.819 102.192 149.774 103.149 150.575 104.861C151.39 106.601 153.847 105.809 155.126 105.257C155.824 104.955 157.223 103.938 158.452 103.509C161.796 106.666 164.692 110.144 166.885 114.24C168.254 116.798 169.293 119.53 170.024 122.339C170.491 124.131 171.411 127.142 171.227 129.475C172.104 124.805 170.517 119.196 168.808 115.022C167.236 111.183 164.884 107.813 162.129 104.78C162.821 102.701 168.64 99.7017 165.161 97.7697C163.314 96.7483 161.422 98.4432 161.018 100.238C160.741 101.472 161.163 103.022 161.612 104.219C160.745 103.295 159.844 102.4 158.916 101.534C157.633 100.339 156.319 99.1776 154.992 98.0312C157.178 95.9779 159.247 90.1081 156.316 89.1481C151.989 87.7346 154.072 95.7412 154.374 97.2419C154.46 97.2469 154.527 97.221 154.576 97.1655C154.552 97.3029 154.523 97.4499 154.489 97.5981C151.951 95.4153 149.374 93.2755 146.883 91.0405C147.108 90.8746 147.464 90.2407 147.745 89.9033C148.378 89.1427 148.983 88.3481 149.426 87.4583C150.125 86.0522 150.799 83.8093 148.946 82.9822C146.931 82.081 145.973 84.6178 145.959 86.1311C145.949 87.1777 146.234 88.172 146.383 89.1978C146.429 89.5178 146.251 90.96 146.686 90.3396C146.666 90.5683 146.663 90.734 146.673 90.8515C146.226 90.4482 145.782 90.0406 145.341 89.63C145.361 89.5782 145.377 89.5217 145.38 89.4561C145.404 89.005 144.95 88.8312 144.631 88.9633C144.049 88.4103 143.473 87.8504 142.907 87.2793C141.708 86.0694 140.491 84.8249 139.282 83.554C139.544 83.3287 139.44 83.0168 139.685 82.7777C139.93 82.5391 140.412 82.4071 140.7 82.1855C141.424 81.6278 142.025 80.8152 142.459 80.0155C143.176 78.6942 144.102 75.9223 142.008 75.2925C139.849 74.6424 138.754 77.3106 138.615 78.9788C138.588 79.302 138.83 82.214 139.015 83.2714C136.779 80.9094 134.58 78.4588 132.587 75.9655C133.191 75.9599 134.904 74.7221 135.25 74.3843C136.095 73.5605 137.438 71.7401 135.957 70.7768C134.64 69.9224 133.017 71.1599 132.453 72.3626C132.361 72.5607 132.034 74.404 132.009 75.231C131.184 74.1737 130.397 73.1102 129.665 72.0433C129.177 71.3339 128.721 70.6058 128.294 69.8623C128.397 69.804 128.494 69.7025 128.585 69.5762C130.782 69.2034 133.582 65.7761 131.002 64.5836C129.774 64.0166 128.441 65.187 127.84 66.1453C127.716 66.3414 127.517 67.327 127.354 68.1045C126.126 65.6411 125.188 63.0333 124.474 60.3594C124.665 60.312 124.827 60.1659 124.849 59.9146C125.915 59.3066 126.757 58.8004 127.502 57.6312C127.964 56.905 128.797 55.2459 127.438 54.8428C125.67 54.3184 124.559 57.0196 124.414 58.3501C124.397 58.5046 124.398 58.9537 124.404 59.3654C124.342 59.357 124.28 59.3579 124.219 59.3687C123.813 57.713 123.489 56.036 123.231 54.3562C124.196 54.0455 124.363 48.9761 123.721 48.2542C122.284 46.638 121.27 48.9727 121.347 50.2067C121.438 51.6617 122.097 52.9852 122.882 54.1599C122.966 54.2842 122.942 54.2782 122.964 54.1049C122.976 54.1906 123.005 54.2538 123.047 54.2996C123.007 55.0655 122.928 55.8496 122.966 56.5273C123.075 58.4681 123.301 60.4202 123.629 62.336C123.709 62.802 123.8 63.2641 123.903 63.7223C123.127 63.0613 122.081 62.474 121.671 62.2904C120.609 61.8142 118.972 61.3001 117.917 62.1068ZM171.351 129.482C171.302 130.158 171.18 130.778 170.952 131.289C171.123 130.707 171.254 130.103 171.351 129.482Z" fill="#F2F2F2"/>
<path id="Vector_3" opacity="0.2" fill-rule="evenodd" clipRule="evenodd" d="M63.9729 11.9223C65.0415 11.3924 66.466 12.0069 65.8717 13.4077C65.2352 14.9076 62.8818 14.9262 61.5527 14.8964C61.6857 14.8895 62.1141 13.514 62.2607 13.3061C62.6932 12.693 63.316 12.2486 63.9729 11.9223ZM51.6694 39.2528C51.292 39.5755 51.6387 39.283 51.6694 39.2528V39.2528ZM65.2149 18.8864C65.8538 19.37 65.8839 20.2243 65.3614 20.8029C64.7393 21.4917 63.6041 21.4672 62.7567 21.4005C62.3733 21.3703 60.3265 21.2091 60.8119 20.8771C60.7746 20.8911 60.6966 20.925 60.6132 20.9711C60.5682 21.1335 60.521 21.2954 60.4718 21.4566C60.4838 21.4636 60.494 21.471 60.5069 21.478C60.493 21.4719 60.4832 21.4654 60.4709 21.4593C59.9779 23.0701 59.2764 24.6041 58.3583 26.0393C58.7016 25.9052 59.0572 25.8037 59.4178 25.7584C60.4857 25.6241 62.7316 26.4448 61.5365 27.8535C60.3905 29.2039 58.6081 27.7567 57.3084 27.5576C56.0467 29.3009 54.6558 30.9717 53.1982 32.5867C53.2874 32.6143 53.3657 32.672 53.4106 32.7618C53.9952 32.4678 54.6044 32.0474 55.1453 31.9334C55.9259 31.7692 57.5264 31.669 58.1159 32.3606C58.8411 33.211 58.063 33.9024 57.2057 34.066C55.9626 34.3032 54.3358 33.7026 53.14 33.2969C53.0031 33.3209 52.8538 33.2813 52.7646 33.173C52.7382 33.1644 52.7118 33.156 52.6861 33.1478C51.21 34.755 49.6775 36.3091 48.1543 37.8292C48.1706 37.8283 48.1868 37.8274 48.2037 37.8265C48.6009 37.5683 49.027 37.3565 49.4888 37.2454C50.557 36.987 51.8136 36.9851 52.68 37.75C53.543 38.5117 53.8482 39.8444 52.9545 40.7006C51.1658 42.4144 48.5336 38.5101 47.6318 38.3475C46.0839 39.8761 44.4473 41.3043 42.7851 42.7038C42.9738 42.6468 43.1673 42.6049 43.3673 42.586C44.9967 42.4307 48.8201 44.407 46.8195 46.3543C45.0761 48.0513 43.061 44.7878 41.6573 43.6468C40.0909 44.9512 38.5159 46.2466 36.9852 47.5925C37.8198 47.3726 38.6263 47.3399 39.5208 47.6071C40.4463 47.8841 41.9396 48.5756 41.3538 49.8136C40.758 51.0726 38.9646 50.5008 38.0306 50.1016C37.5212 49.8839 36.4999 49.1488 35.6031 48.8394C33.1604 51.1235 31.0442 53.639 29.4417 56.6019C28.4412 58.4518 27.6816 60.4281 27.1467 62.4592C26.8053 63.7555 26.1327 65.933 26.2662 67.62C25.6272 64.2433 26.7879 60.1869 28.0374 57.1678C29.1864 54.3916 30.905 51.9541 32.9176 49.7598C32.4136 48.2564 28.1659 46.0899 30.7066 44.6917C32.0558 43.9524 33.4366 45.1773 33.7308 46.4752C33.9329 47.367 33.6238 48.488 33.2959 49.3539C33.929 48.685 34.5872 48.0376 35.2653 47.4116C36.2026 46.5465 37.1622 45.7064 38.131 44.877C36.536 43.3931 35.0279 39.1494 37.1679 38.4541C40.328 37.4304 38.8037 43.2208 38.5827 44.306C38.5201 44.3097 38.4714 44.2909 38.4355 44.2508C38.4532 44.3502 38.4738 44.4565 38.4987 44.5636C40.353 42.9843 42.2348 41.436 44.0546 39.819C43.8908 39.6991 43.6304 39.2409 43.4258 38.997C42.964 38.4473 42.5222 37.8729 42.1994 37.2297C41.6895 36.2132 41.198 34.5916 42.5514 33.9928C44.0232 33.3405 44.7215 35.1745 44.7312 36.2687C44.7378 37.0255 44.5293 37.7446 44.4205 38.4864C44.3865 38.7178 44.5165 39.7606 44.1985 39.3121C44.2134 39.4775 44.2155 39.5973 44.208 39.6822C44.5347 39.3905 44.8589 39.0956 45.1811 38.7985C45.1662 38.761 45.1551 38.7202 45.1527 38.6728C45.1356 38.3466 45.4671 38.2208 45.6995 38.3162C46.1246 37.9161 46.5455 37.511 46.959 37.0978C47.8352 36.2225 48.7242 35.3222 49.6071 34.4027C49.4157 34.2399 49.492 34.0144 49.313 33.8415C49.1343 33.6691 48.7823 33.5739 48.5722 33.4137C48.0438 33.0107 47.6057 32.4233 47.289 31.8452C46.766 30.8901 46.0906 28.8861 47.6199 28.4299C49.1963 27.959 49.9953 29.888 50.096 31.0942C50.1156 31.3279 49.9379 33.4336 49.8022 34.1983C51.4358 32.4895 53.0425 30.7167 54.4983 28.9131C54.0572 28.9092 52.807 28.0148 52.5543 27.7707C51.9377 27.1753 50.9577 25.8595 52.0396 25.1624C53.0016 24.544 54.1865 25.4383 54.5972 26.3078C54.6648 26.4509 54.9024 27.7837 54.9207 28.3817C55.5233 27.6169 56.0981 26.8476 56.6329 26.0758C56.9895 25.5627 57.3228 25.0361 57.6347 24.4982C57.5597 24.4562 57.4892 24.3828 57.4226 24.2915C55.8189 24.0227 53.7753 21.5455 55.6596 20.6823C56.5568 20.2718 57.5291 21.1176 57.9681 21.8103C58.0581 21.9521 58.2035 22.6647 58.3219 23.2268C59.2192 21.4452 59.9053 19.5591 60.4277 17.6254C60.2881 17.5911 60.1699 17.4855 60.1544 17.3039C59.3759 16.8646 58.7612 16.4988 58.2181 15.6537C57.8806 15.1288 57.2731 13.9294 58.2655 13.6374C59.557 13.2575 60.3671 15.2104 60.4722 16.1724C60.4845 16.2841 60.4839 16.6089 60.4795 16.9065C60.5243 16.9004 60.5696 16.9011 60.6141 16.9089C60.9112 15.7115 61.1486 14.4987 61.3375 13.284C60.6328 13.0597 60.5128 9.39404 60.9823 8.87185C62.0318 7.7026 62.771 9.39049 62.7145 10.2828C62.6478 11.3349 62.1659 12.2922 61.5923 13.1419C61.5307 13.2318 61.5483 13.2275 61.5324 13.1022C61.5236 13.1641 61.5026 13.2098 61.4716 13.243C61.5009 13.7968 61.5583 14.3637 61.5303 14.8538C61.4502 16.2572 61.2844 17.6689 61.0441 19.0543C60.9856 19.3913 60.9186 19.7255 60.8436 20.0568C61.4104 19.5786 62.1744 19.1535 62.4733 19.0206C63.2491 18.6759 64.4447 18.3035 65.2149 18.8864ZM26.1393 67.4867C26.1768 67.9377 26.288 68.3493 26.5069 68.6864C26.3462 68.301 26.2257 67.8996 26.1393 67.4867Z" fill="#C1DEE2"/>
<g id="Group_2" opacity="0.7">
<path id="Vector_4" fill-rule="evenodd" clipRule="evenodd" d="M148.455 98.4491C152.61 98.2335 157.748 100.659 158.192 105.175C158.514 108.456 158.414 111.728 158.912 115.005C159.311 117.623 160.153 120.137 161.303 122.522C162.408 124.816 164.7 126.769 165.297 129.219C165.677 130.78 165.464 132.977 164.94 134.504C164.303 136.361 164.641 136.214 165.911 137.772C168.4 140.826 170.641 143.957 172.225 147.604C174.508 152.856 176.004 158.996 175.157 164.746C175.049 165.476 174.922 168.096 173.916 168.279C172.793 168.484 173.318 166.985 173.378 166.501C173.76 163.413 174.1 160.713 173.639 157.576C171.861 145.473 163.178 137.498 157.524 127.226C157.214 126.697 156.558 125.435 156.101 124.603C155.381 123.289 154.657 120.789 153.682 119.815C151.846 117.98 153.534 121.669 153.892 122.374C154.344 123.265 154.842 124.212 155.305 124.992C157.427 128.611 159.794 132.562 161.985 136.292C152.51 138.451 145.838 127.06 143.295 119.572C141.2 113.402 138.694 98.977 148.455 98.4491Z" fill="#69A1AC"/>
<g id="Group_3">
<path id="Vector_5" fill-rule="evenodd" clipRule="evenodd" d="M204.142 86.9915C197.196 87.5425 192.738 92.1256 190.662 98.5358C189.543 101.99 189.415 105.539 188.793 109.089C187.858 114.43 185.846 118.478 181.914 122.283C180.696 123.462 179.798 124.672 179.16 125.966C177.894 127.259 176.791 128.721 175.981 130.51C174.946 132.793 174.653 135.533 175.848 137.81C176.169 138.422 176.971 139.651 177.801 140.209C174.692 146.831 172.982 154.084 173.175 161.327C173.291 165.699 173.505 170.074 173.754 174.441C173.821 175.613 174.203 177.55 174.776 175.583C175.301 173.784 174.643 170.961 174.582 169.082C174.286 159.927 174.032 151.604 177.801 143.051C178.196 142.155 178.615 141.265 179.051 140.383C179.077 140.368 179.1 140.35 179.125 140.333C179.141 140.346 179.156 140.36 179.173 140.372C179.201 140.323 179.239 140.263 179.283 140.197C179.409 140.068 179.518 139.905 179.622 139.723C179.956 139.26 180.334 138.715 180.336 138.417C180.336 138.415 180.335 138.412 180.335 138.409C182.668 134.601 185.34 131.003 188.069 127.475C188.049 127.501 191.03 123.442 190.569 125.687C190.346 126.768 188.154 128.828 187.268 129.974C185.309 132.523 183.009 135.752 181.098 138.875C180.84 139.023 180.477 139.749 180.214 140.289C180.069 140.563 179.934 140.84 179.8 141.08C186.574 143.318 191.843 138.81 195.435 133.567C195.44 133.561 195.444 133.555 195.448 133.548C196.541 132.1 197.661 130.661 199.06 129.516C201.395 127.605 203.895 127.268 206.647 126.327C214.153 123.763 217.344 114.036 218.357 106.818C219.501 98.6749 213.907 86.1886 204.142 86.9915Z" fill="#89C5CC"/>
<path id="Vector_6" fill-rule="evenodd" clipRule="evenodd" d="M190.422 64.1881C183.294 71.6072 179.85 81.8976 177.123 91.5715C174.077 102.376 172.065 113.348 171.988 124.582C171.938 131.962 171.737 139.389 172.168 146.761C172.32 149.379 172.581 152.002 172.996 154.592C173.031 154.805 173.959 160.588 174.847 159.24C175.353 158.474 173.896 153.241 173.786 152.37C173.166 147.461 173.022 142.516 173.053 137.571C173.102 129.431 172.862 121.331 173.687 113.221C173.81 112.01 173.908 110.738 174.195 109.553C174.501 108.293 174.112 108.843 175.107 108.345C176.073 107.86 177.268 107.929 178.271 107.321C182.249 104.909 184.284 98.7121 185.868 94.6464C187.68 89.997 188.781 85.0391 189.66 80.1462C190.306 76.5513 190.768 72.9783 191.029 69.3371C191.111 68.1896 191.116 66.9895 191.342 65.8611C191.402 65.5568 191.707 65.0183 191.696 64.7488C191.673 64.1783 191.328 63.8428 191.3 63.3634C191.002 63.632 190.709 63.9071 190.422 64.1881Z" fill="#89C5CC"/>
<path id="Vector_7" fill-rule="evenodd" clipRule="evenodd" d="M151.555 163.035C151.555 175.305 161.501 185.251 173.77 185.251C186.04 185.251 195.986 175.305 195.986 163.035" fill="#89C5CC"/>
</g>
<path id="Vector_8" fill-rule="evenodd" clipRule="evenodd" d="M175.551 163.106H174.377C174.458 161.633 174.566 160.163 174.812 158.707C175.754 153.137 178.698 144.956 185.156 144.052C185.394 144.018 186.271 144.012 187.332 144.075C187.836 143.794 188.399 143.623 188.993 143.584C194.491 143.179 200.631 147.615 203.284 152.231C205.422 155.953 205.061 160.84 203.741 164.794C202.856 167.441 200.926 171.215 197.708 171.252C193.681 171.298 193.487 166.321 193.409 163.411C193.306 159.543 192.817 156.174 189.769 153.537C189.058 152.923 188.282 152.383 187.564 151.777C186.441 150.829 185.199 149.858 185.054 148.29C184.855 146.126 186.076 145.736 187.941 146.138C188.259 146.207 191.461 147.644 190.987 146.508C190.842 146.161 190.314 145.886 189.646 145.68C187.92 145.492 185.86 145.274 185.268 145.405C178.878 146.806 176.391 155.657 175.73 161.28C175.659 161.887 175.601 162.496 175.551 163.106Z" fill="#69A1AC"/>
</g>
<g id="Group_4" opacity="0.5">
<path id="Vector_9" fill-rule="evenodd" clipRule="evenodd" d="M54.2376 57.8755C55.5165 56.0519 57.8897 51.4208 59.6897 50.7692C60.849 50.3495 60.511 54.6909 60.5253 55.5187C60.5811 58.7213 60.2693 61.9036 59.8843 65.0794C59.1906 70.8068 56.9223 75.9075 53.8113 80.7822C52.2104 83.2905 50.3326 85.8292 47.7319 87.3942C46.5348 88.115 45.0944 88.2357 43.9121 88.8566C42.5352 89.5795 43.2851 88.9951 42.6646 90.4299C41.8029 92.4219 41.5272 94.9918 41.1285 97.1173C39.2979 106.875 34.8659 158.455 35.6343 168.38C35.7025 169.259 34.4759 169.47 34.4146 168.396C34.0892 162.701 36.9056 123.268 38.3265 110.372C39.7474 97.4761 41.1853 86.0833 42.6271 81.6217C44.3762 76.2088 47.5352 69.6995 50.1649 64.6518C51.3863 62.3067 52.7177 60.0425 54.2376 57.8755Z" fill="#69A1AC"/>
<path id="Vector_10" fill-rule="evenodd" clipRule="evenodd" d="M63.7284 121.124C67.0562 118.681 70.6583 123.292 67.6469 125.736C65.9822 127.086 64.2418 126.606 63.2621 125.48C62.626 126.256 62.0307 127.066 61.4587 127.751C59.7159 129.837 58.0687 131.974 56.4945 134.16C53.2243 138.701 50.4218 143.499 47.4915 148.209C44.5997 152.858 41.7311 157.531 39.11 162.297C36.8896 166.336 33.9301 171.087 33.1699 175.514C34.3233 166.124 38.7001 157.099 43.912 148.822C49.0815 140.612 55.0141 131.646 63.0184 125.168C62.2037 123.97 62.1811 122.26 63.7284 121.124Z" fill="#C1DEE2"/>
<path id="Vector_11" fill-rule="evenodd" clipRule="evenodd" d="M0.582232 98.2242C2.44447 98.5884 5.48734 102.801 7.02237 104.406C8.84666 106.314 10.5017 108.347 12.0618 110.477C15.4204 115.061 18.4241 119.936 20.9783 125.02C25.1422 133.307 28.478 141.814 30.899 150.838C32.381 156.362 33.3405 162.087 33.9091 167.773C34.0165 168.845 35.1407 177.112 33.5208 177.335C32.0639 177.535 32.5139 171.057 32.4436 170.176C31.6491 160.235 29.2691 150.563 25.9584 141.193C25.2373 139.152 24.5674 136.652 23.4141 134.815C22.5837 133.492 23.4082 133.954 21.9487 133.453C20.6955 133.023 19.2677 133.128 17.9844 132.601C15.1966 131.458 12.9644 129.239 11.0077 127.006C7.20511 122.668 4.19176 117.974 2.62103 112.415C1.7497 109.332 0.948993 106.232 0.504648 103.054C0.389704 102.233 -0.617219 97.9896 0.582232 98.2242Z" fill="#69A1AC"/>
<path id="Vector_12" fill-rule="evenodd" clipRule="evenodd" d="M7.93156 28.1341C14.9462 40.2993 20.7106 53.6624 24.4326 67.1972C26.6878 75.3978 28.2649 83.8128 29.8318 92.1671C32.258 105.103 34.5528 118.037 35.2056 131.202C35.8624 144.444 37.161 159.716 32.8251 172.47C34.9909 159.522 32.9289 145.739 32.5638 132.71C32.3894 126.49 31.8838 120.331 31.2205 114.148C30.5769 108.15 29.5255 102.18 28.5463 96.229C28.0694 93.3307 27.5685 90.4368 27.0585 87.5444C26.9062 86.6815 26.8419 84.1208 26.2945 83.5313C25.7436 82.9379 22.9326 82.696 22.0501 82.2606C20.273 81.3837 18.6014 80.1381 17.122 78.8219C14.286 76.2988 11.8188 73.0022 9.87147 69.7524C5.3659 62.2329 3.56457 53.0564 3.65562 44.3479C3.67311 42.6571 6.3923 24.4499 5.30023 24.1992C5.36598 24.1222 5.42818 24.0427 5.48682 23.96C6.31361 25.3443 7.12493 26.738 7.93156 28.1341Z" fill="#89C5CC"/>
<path id="Vector_13" fill-rule="evenodd" clipRule="evenodd" d="M83.6432 72.0097C83.7515 71.8535 84.4559 70.7678 84.1012 70.8372C84.8234 70.6959 83.1078 72.0346 84.9074 71.2132C84.0529 72.0202 84.546 73.0685 84.5574 74.1546C84.576 75.9179 84.281 77.6668 83.9489 79.3923C83.4241 82.1198 82.6423 84.7717 81.5076 87.3086C79.0343 92.8371 74.8347 98.1593 69.8489 101.616C67.3875 103.322 64.9753 103.903 62.1681 104.689C60.395 105.185 60.2544 106.102 59.3132 107.823C57.3538 111.407 55.4292 114.977 53.7011 118.682C51.6377 123.106 49.6346 127.534 47.7451 132.036C41.3797 147.199 36.1988 162.908 33.478 179.166C33.4114 169.586 35.6277 159.718 38.4234 150.586C40.4599 143.933 43.111 137.52 45.9386 131.171C46.6238 129.633 47.6622 127.654 47.9532 125.956C48.1569 124.767 47.534 123.623 47.2488 122.369C46.1369 117.489 46.2165 112.021 47.1929 107.114C48.2694 101.704 51.3828 99.1924 56.6494 98.426C58.5755 98.1457 61.0236 98.2484 62.7897 97.4272C64.7139 96.5328 65.5077 93.5932 66.6018 91.7062C69.5407 86.6373 73.0325 81.776 77.0421 77.505C78.1523 76.3223 79.3462 75.2312 80.6129 74.2199C81.4116 73.5818 83.0989 72.7957 83.6432 72.0097Z" fill="#89C5CC"/>
<path id="Vector_14" fill-rule="evenodd" clipRule="evenodd" d="M24.5882 168.819H43.2789C44.1193 168.819 44.8006 169.5 44.8006 170.34C44.8006 170.415 44.7951 170.489 44.7843 170.562L43.3397 180.358C42.8993 183.344 40.3368 185.557 37.3183 185.557H30.5489C27.5304 185.557 24.9679 183.344 24.5275 180.358L23.0829 170.562C22.9603 169.731 23.5349 168.958 24.3662 168.835C24.4397 168.824 24.5139 168.819 24.5882 168.819Z" fill="#C1DEE2"/>
</g>
<g id="Group_5">
<g id="Group_6">
<path id="Vector_15" fill-rule="evenodd" clipRule="evenodd" d="M7.73633 173.824C7.73633 180.302 8.24756 185.554 15.1094 185.554C21.9713 185.554 22.4826 180.302 22.4826 173.824" fill="#F2F2F2"/>
<path id="Vector_16" fill-rule="evenodd" clipRule="evenodd" d="M17.1494 169.782C16.8979 170.217 16.6736 170.661 16.4755 171.111C16.4685 170.184 16.5198 169.25 16.6598 168.303C16.8992 166.681 17.2647 165.068 17.6082 163.457C17.8551 162.299 17.8395 160.22 18.7764 159.297C19.0333 159.098 19.0951 159.489 19.0951 159.659C19.0983 159.695 19.0944 158.966 18.845 159.093C17.3628 159.859 16.8825 162.266 16.408 163.471C15.7156 165.23 15.1265 167.028 14.8839 168.858C14.8226 169.321 14.7893 169.783 14.7816 170.244C14.7312 170.121 14.6839 169.997 14.6315 169.874C13.776 167.867 12.6215 165.909 11.1815 164.104C10.8271 163.659 6.3705 159.276 6.02163 159.947C6.05605 160.044 6.12812 160.125 6.23802 160.189C6.24447 160.197 6.24465 160.193 6.24088 160.182C6.50263 160.605 7.2468 161.258 7.4786 161.628C8.06196 162.56 8.51535 163.55 8.97609 164.52C9.94955 166.571 10.8526 168.643 11.728 170.719C11.9318 171.202 12.1442 171.683 12.361 172.162C10.1267 168.94 7.14605 166.014 3.04297 164.339C4.44436 165.052 5.36315 166.393 6.30955 167.42C7.45099 168.659 8.65321 169.865 9.79681 171.102C11.1457 172.562 12.7328 174.099 14.0302 175.714C15.2869 178.353 16.5082 180.994 17.262 183.767C16.9531 182.809 17.2378 181.485 17.1849 180.479C17.143 179.679 17.0494 178.885 16.9212 178.092C17.0797 178.45 17.2163 178.808 17.2782 179.14C17.2217 178.582 17.1566 178.028 17.0867 177.476C17.2661 176.96 17.4424 176.478 17.5614 176.081C18.1715 174.044 18.8979 172.043 19.8872 170.092C20.8025 168.288 21.8525 166.507 22.9967 164.78C23.5304 163.974 24.0714 163.172 24.6091 162.369C24.961 161.842 25.2961 161 25.786 160.496C22.6189 163.392 19.1588 166.308 17.1494 169.782Z" fill="#F2F2F2"/>
</g>
<g id="Group_7">
<path id="Vector_17" fill-rule="evenodd" clipRule="evenodd" d="M209.262 37.6019C208.354 34.5735 206.223 32.2033 204.01 30.0315C199.702 25.8036 197.385 23.1895 195.85 17.0048C194.947 13.3674 194.028 9.51293 191.165 6.87398C189.079 4.95225 185.491 3.33764 182.702 4.71376C178.412 7.27434 177.26 12.5291 177.693 17.2344C178.229 23.0663 180.953 26.6622 186.186 28.8102C189.135 30.02 191.095 31.6163 192.696 34.3978C193.976 36.622 194.723 39.4071 196.332 41.4234C198.738 44.4375 201.748 45.7773 205.458 45.2767C201.983 38.8824 197.922 32.428 193.025 27.0443C192.566 26.503 189.862 24.4314 190.408 23.5089C191.008 22.4933 193.784 26.3086 193.765 26.2855C195.188 27.9193 196.505 29.6554 197.798 31.4082C197.795 31.4099 197.791 31.4108 197.788 31.4126C199.119 33.2112 200.44 35.0363 201.736 36.8843C202.26 37.666 202.77 38.4577 203.258 39.2692C203.975 40.46 205.112 43.8398 206.285 44.572C206.535 44.7286 206.767 44.8161 206.984 44.8522C207.784 46.1621 208.563 47.4825 209.303 48.8186C211.236 52.3079 212.896 55.9922 213.658 59.9318C213.88 61.0816 213.723 65.3827 214.507 66.2128C215.942 67.731 215.522 64.8073 215.436 63.9248C214.723 56.6169 212.1 50.391 208.291 44.2473C209.461 42.7189 209.63 38.829 209.262 37.6019Z" fill="#F2F2F2"/>
<path id="Vector_18" fill-rule="evenodd" clipRule="evenodd" d="M160.113 41.132C161.626 39.3495 165.263 39.0471 167.487 39.1664C170.239 39.314 173.066 39.984 175.685 40.7941C179.998 42.1285 184.189 44.5636 187.988 46.9205C188.446 47.2045 194.086 50.5963 193.587 51.1916C193.092 51.7813 187.555 47.7524 186.321 47.0579C183.688 45.5757 181.273 43.8228 178.371 42.844C175.365 41.8303 172.187 41.4289 169.027 41.4566C168.621 41.4602 167.298 41.1774 167.269 41.7775C167.242 42.3643 169.431 42.0581 169.817 42.0616C171.411 42.0763 173.015 42.2264 174.587 42.5027C177.532 43.0203 180.3 44.0631 182.822 45.6625C182.119 47.2988 180.432 48.0533 178.662 47.6438C177.132 47.2897 175.641 46.4168 174.144 46.1643C173.112 45.9906 172.079 46.0939 171.079 46.3846C168.441 47.1514 166.919 48.7222 164.018 47.6295C161.744 46.7729 157.94 43.6955 160.113 41.132Z" fill="#F2F2F2"/>
<path id="Vector_19" fill-rule="evenodd" clipRule="evenodd" d="M161.825 24.2642H162.541C162.491 23.3559 162.426 22.4491 162.272 21.5509C161.697 18.1845 159.898 13.24 155.952 12.6936C155.807 12.6732 155.271 12.6698 154.623 12.7074C154.316 12.5375 153.971 12.4347 153.608 12.4111C150.249 12.1661 146.498 14.847 144.878 17.637C143.571 19.8864 143.791 22.8401 144.598 25.2299C145.138 26.8298 146.318 29.1109 148.284 29.1331C150.744 29.161 150.863 26.153 150.91 24.3945C150.974 22.0566 151.272 20.02 153.134 18.4265C153.568 18.0553 154.043 17.7287 154.481 17.3626C155.168 16.7896 155.926 16.2029 156.015 15.255C156.137 13.9471 155.39 13.7118 154.251 13.9548C154.057 13.9961 152.1 14.8646 152.39 14.1781C152.478 13.9684 152.801 13.8023 153.209 13.6777C154.264 13.5643 155.522 13.4326 155.884 13.5112C159.788 14.3585 161.308 19.7077 161.711 23.1064C161.757 23.4912 161.794 23.8774 161.825 24.2642Z" fill="#F2F2F2"/>
</g>
</g>
</g>
</svg>
