<svg width="80" height="80" viewBox="0 0 80 80" fill="none" xmlns="http://www.w3.org/2000/svg">
<rect x="15.75" y="15.75" width="48.5" height="48.5" stroke="#787878" stroke-width="1.5"/>
<rect x="34.75" y="34.75" width="10.5" height="10.5" stroke="#787878" stroke-width="1.5"/>
<path d="M40 31L40 24" stroke="#787878" stroke-width="1.5"/>
<path d="M40 31L40 24" stroke="#787878" stroke-width="1.5"/>
<path d="M57 36L57 29" stroke="#787878" stroke-width="1.5"/>
<path d="M23 36L23 29" stroke="#787878" stroke-width="1.5"/>
<path d="M57 51L57 44" stroke="#787878" stroke-width="1.5"/>
<path d="M23 51L23 44" stroke="#787878" stroke-width="1.5"/>
<path d="M40 56L40 49" stroke="#787878" stroke-width="1.5"/>
<path d="M49 40L56 40" stroke="#787878" stroke-width="1.5"/>
<path d="M43 57L50 57" stroke="#787878" stroke-width="1.5"/>
<path d="M43 23L50 23" stroke="#787878" stroke-width="1.5"/>
<path d="M24 40L31 40" stroke="#787878" stroke-width="1.5"/>
<path d="M30 57L37 57" stroke="#787878" stroke-width="1.5"/>
<path d="M30 23L37 23" stroke="#787878" stroke-width="1.5"/>
</svg>
